<svg width="14" height="13" viewBox="0 0 14 13" fill="none" xmlns="http://www.w3.org/2000/svg">
<rect width="2.26795" height="2.26795" transform="matrix(0.866025 0.5 -0.866025 0.5 10.9639 1)" fill="#A89378" stroke="black" stroke-width="0.5" stroke-linejoin="bevel"/>
<rect width="2.26795" height="2.26795" transform="matrix(0.866025 0.5 0 1 9 2.13403)" fill="#A89378" stroke="black" stroke-width="0.5" stroke-linejoin="bevel"/>
<rect width="2.26795" height="2.26795" transform="matrix(0.866025 -0.5 0 1 10.9639 3.26794)" fill="#A89378" stroke="black" stroke-width="0.5" stroke-linejoin="bevel"/>
<mask id="path-4-outside-1_3048_1433" maskUnits="userSpaceOnUse" x="0" y="5" width="13" height="8" fill="black">
<rect fill="white" y="5" width="13" height="8"/>
<path d="M5.13559 10.864H2.80759L2.40759 12H1.45559L3.44759 6.432H4.50359L6.49559 12H5.53559L5.13559 10.864ZM4.87959 10.12L3.97559 7.536L3.06359 10.12H4.87959ZM10.2497 12L8.96972 9.776H8.27372V12H7.36172V6.44H9.28172C9.70839 6.44 10.0684 6.51467 10.3617 6.664C10.6604 6.81333 10.8817 7.01333 11.0257 7.264C11.1751 7.51467 11.2497 7.79467 11.2497 8.104C11.2497 8.46667 11.1431 8.79733 10.9297 9.096C10.7217 9.38933 10.3991 9.58933 9.96172 9.696L11.3377 12H10.2497ZM8.27372 9.048H9.28172C9.62305 9.048 9.87905 8.96267 10.0497 8.792C10.2257 8.62133 10.3137 8.392 10.3137 8.104C10.3137 7.816 10.2284 7.592 10.0577 7.432C9.88705 7.26667 9.62839 7.184 9.28172 7.184H8.27372V9.048Z"/>
</mask>
<path d="M5.13559 10.864H2.80759L2.40759 12H1.45559L3.44759 6.432H4.50359L6.49559 12H5.53559L5.13559 10.864ZM4.87959 10.12L3.97559 7.536L3.06359 10.12H4.87959ZM10.2497 12L8.96972 9.776H8.27372V12H7.36172V6.44H9.28172C9.70839 6.44 10.0684 6.51467 10.3617 6.664C10.6604 6.81333 10.8817 7.01333 11.0257 7.264C11.1751 7.51467 11.2497 7.79467 11.2497 8.104C11.2497 8.46667 11.1431 8.79733 10.9297 9.096C10.7217 9.38933 10.3991 9.58933 9.96172 9.696L11.3377 12H10.2497ZM8.27372 9.048H9.28172C9.62305 9.048 9.87905 8.96267 10.0497 8.792C10.2257 8.62133 10.3137 8.392 10.3137 8.104C10.3137 7.816 10.2284 7.592 10.0577 7.432C9.88705 7.26667 9.62839 7.184 9.28172 7.184H8.27372V9.048Z" fill="#111111"/>
<path d="M5.13559 10.864L6.07883 10.5319C5.93792 10.1317 5.55985 9.864 5.13559 9.864V10.864ZM2.80759 10.864V9.864C2.38334 9.864 2.00526 10.1317 1.86436 10.5319L2.80759 10.864ZM2.40759 12V13C2.83185 13 3.20992 12.7323 3.35083 12.3321L2.40759 12ZM1.45559 12L0.514036 11.6631C0.40446 11.9694 0.450709 12.3099 0.638021 12.5758C0.825333 12.8418 1.1303 13 1.45559 13V12ZM3.44759 6.432V5.432C3.02518 5.432 2.64833 5.69742 2.50604 6.09515L3.44759 6.432ZM4.50359 6.432L5.44515 6.09515C5.30286 5.69742 4.92601 5.432 4.50359 5.432V6.432ZM6.49559 12V13C6.82089 13 7.12585 12.8418 7.31317 12.5758C7.50048 12.3099 7.54673 11.9694 7.43715 11.6631L6.49559 12ZM5.53559 12L4.59236 12.3321C4.73326 12.7323 5.11134 13 5.53559 13V12ZM4.87959 10.12V11.12C5.20365 11.12 5.50761 10.963 5.69514 10.6987C5.88266 10.4344 5.93051 10.0957 5.8235 9.78978L4.87959 10.12ZM3.97559 7.536L4.9195 7.20578C4.77932 6.8051 4.40146 6.53659 3.97697 6.536C3.55248 6.53542 3.17388 6.80289 3.0326 7.20318L3.97559 7.536ZM3.06359 10.12L2.1206 9.78718C2.01259 10.0932 2.05981 10.4326 2.24725 10.6976C2.4347 10.9625 2.73906 11.12 3.06359 11.12V10.12ZM5.13559 9.864H2.80759V11.864H5.13559V9.864ZM1.86436 10.5319L1.46436 11.6679L3.35083 12.3321L3.75083 11.1961L1.86436 10.5319ZM2.40759 11H1.45559V13H2.40759V11ZM2.39715 12.3369L4.38915 6.76885L2.50604 6.09515L0.514036 11.6631L2.39715 12.3369ZM3.44759 7.432H4.50359V5.432H3.44759V7.432ZM3.56204 6.76885L5.55404 12.3369L7.43715 11.6631L5.44515 6.09515L3.56204 6.76885ZM6.49559 11H5.53559V13H6.49559V11ZM6.47883 11.6679L6.07883 10.5319L4.19236 11.1961L4.59236 12.3321L6.47883 11.6679ZM5.8235 9.78978L4.9195 7.20578L3.03169 7.86622L3.93569 10.4502L5.8235 9.78978ZM3.0326 7.20318L2.1206 9.78718L4.00658 10.4528L4.91858 7.86882L3.0326 7.20318ZM3.06359 11.12H4.87959V9.12H3.06359V11.12ZM10.2497 12L9.38301 12.4988C9.56147 12.8089 9.89197 13 10.2497 13V12ZM8.96972 9.776L9.83642 9.27718C9.65797 8.96711 9.32747 8.776 8.96972 8.776V9.776ZM8.27372 9.776V8.776C7.72143 8.776 7.27372 9.22372 7.27372 9.776H8.27372ZM8.27372 12V13C8.826 13 9.27372 12.5523 9.27372 12H8.27372ZM7.36172 12H6.36172C6.36172 12.5523 6.80943 13 7.36172 13V12ZM7.36172 6.44V5.44C6.80943 5.44 6.36172 5.88771 6.36172 6.44H7.36172ZM10.3617 6.664L9.90802 7.55519L9.91451 7.55843L10.3617 6.664ZM11.0257 7.264L10.1586 7.76212C10.1612 7.76671 10.1639 7.77127 10.1666 7.77581L11.0257 7.264ZM10.9297 9.096L10.116 8.51476L10.114 8.51757L10.9297 9.096ZM9.96172 9.696L9.72476 8.72448C9.41634 8.7997 9.16197 9.0169 9.03934 9.30972C8.91671 9.60254 8.9404 9.93619 9.10318 10.2087L9.96172 9.696ZM11.3377 12V13C11.6976 13 12.0298 12.8066 12.2074 12.4936C12.3851 12.1806 12.3808 11.7963 12.1963 11.4873L11.3377 12ZM8.27372 9.048H7.27372C7.27372 9.60028 7.72143 10.048 8.27372 10.048V9.048ZM10.0497 8.792L9.35357 8.0741C9.34989 8.07767 9.34624 8.08127 9.34261 8.08489L10.0497 8.792ZM10.0577 7.432L9.36192 8.15024C9.36584 8.15404 9.3698 8.1578 9.37378 8.16154L10.0577 7.432ZM8.27372 7.184V6.184C7.72143 6.184 7.27372 6.63171 7.27372 7.184H8.27372ZM11.1164 11.5012L9.83642 9.27718L8.10301 10.2748L9.38301 12.4988L11.1164 11.5012ZM8.96972 8.776H8.27372V10.776H8.96972V8.776ZM7.27372 9.776V12H9.27372V9.776H7.27372ZM8.27372 11H7.36172V13H8.27372V11ZM8.36172 12V6.44H6.36172V12H8.36172ZM7.36172 7.44H9.28172V5.44H7.36172V7.44ZM9.28172 7.44C9.59584 7.44 9.7906 7.49537 9.90804 7.55516L10.8154 5.77284C10.3462 5.53396 9.82093 5.44 9.28172 5.44V7.44ZM9.91451 7.55843C10.0653 7.63382 10.1271 7.70722 10.1586 7.76212L11.8928 6.76588C11.6364 6.31944 11.2555 5.99285 10.8089 5.76957L9.91451 7.55843ZM10.1666 7.77581C10.2181 7.86227 10.2497 7.96357 10.2497 8.104H12.2497C12.2497 7.62577 12.132 7.16707 11.8848 6.75219L10.1666 7.77581ZM10.2497 8.104C10.2497 8.25557 10.2097 8.3835 10.116 8.51476L11.7435 9.67724C12.0764 9.21116 12.2497 8.67777 12.2497 8.104H10.2497ZM10.114 8.51757C10.0777 8.56872 9.98905 8.66002 9.72476 8.72448L10.1987 10.6675C10.8091 10.5186 11.3657 10.2099 11.7455 9.67443L10.114 8.51757ZM9.10318 10.2087L10.4792 12.5127L12.1963 11.4873L10.8203 9.18326L9.10318 10.2087ZM11.3377 11H10.2497V13H11.3377V11ZM8.27372 10.048H9.28172V8.048H8.27372V10.048ZM9.28172 10.048C9.7772 10.048 10.3325 9.92345 10.7568 9.49911L9.34261 8.08489C9.35952 8.06799 9.37661 8.05527 9.39122 8.04651C9.40548 8.03795 9.41406 8.03513 9.41349 8.03532C9.41035 8.03636 9.37204 8.048 9.28172 8.048V10.048ZM10.7459 9.5099C11.15 9.11801 11.3137 8.61136 11.3137 8.104H9.31372C9.31372 8.14626 9.30736 8.15131 9.31409 8.13375C9.31738 8.12519 9.32274 8.11408 9.33061 8.10216C9.33848 8.09023 9.3467 8.08076 9.35357 8.0741L10.7459 9.5099ZM11.3137 8.104C11.3137 7.6081 11.159 7.09376 10.7417 6.70246L9.37378 8.16154C9.36131 8.14985 9.34876 8.13534 9.33767 8.1187C9.32663 8.10214 9.31948 8.08714 9.31523 8.076C9.30683 8.05394 9.31372 8.05779 9.31372 8.104H11.3137ZM10.7535 6.71376C10.3257 6.29931 9.76959 6.184 9.28172 6.184V8.184C9.37885 8.184 9.42324 8.19596 9.4313 8.19854C9.4342 8.19947 9.42689 8.19742 9.41303 8.18942C9.39876 8.18117 9.38066 8.16839 9.36192 8.15024L10.7535 6.71376ZM9.28172 6.184H8.27372V8.184H9.28172V6.184ZM7.27372 7.184V9.048H9.27372V7.184H7.27372Z" fill="white" mask="url(#path-4-outside-1_3048_1433)"/>
</svg>
