<svg width="23" height="13" viewBox="0 0 23 13" fill="none" xmlns="http://www.w3.org/2000/svg">
<path d="M8.73 10.012H3.006L1.908 13H0.576L5.166 0.579999H6.588L11.16 13H9.828L8.73 10.012ZM8.352 8.968L5.868 2.164L3.384 8.968H8.352ZM20.7782 13L17.6642 7.744H15.3422V13H14.0822V0.417999H17.8622C19.2662 0.417999 20.3282 0.753999 21.0482 1.426C21.7802 2.098 22.1462 2.98 22.1462 4.072C22.1462 4.984 21.8822 5.764 21.3542 6.412C20.8382 7.048 20.0702 7.462 19.0502 7.654L22.2902 13H20.7782ZM15.3422 6.718H17.8802C18.8642 6.718 19.6022 6.478 20.0942 5.998C20.5982 5.518 20.8502 4.876 20.8502 4.072C20.8502 3.244 20.6102 2.608 20.1302 2.164C19.6502 1.708 18.8942 1.48 17.8622 1.48H15.3422V6.718Z" fill="black"/>
</svg>
