<svg width="16" height="16" viewBox="0 0 16 16" fill="none" xmlns="http://www.w3.org/2000/svg">
<path fill-rule="evenodd" clip-rule="evenodd" d="M9.98902 5.28802L7.74902 0.749023L5.50902 5.28802L0.499023 6.01602L4.12402 9.55002L3.26802 14.539L7.74902 12.184L7.87858 12.2521C8.0881 11.7019 8.53543 11.2594 9.11572 11.066L9.66712 10.8821L9.85202 10.3275C10.1858 9.33352 11.1126 8.99902 11.7485 8.99902C11.8069 8.99902 11.8677 9.00182 11.9303 9.00772L14.999 6.01602L9.98902 5.28802Z" fill="#A89378" fill-opacity="0.66"/>
<path d="M11.492 10.491L10.546 10.176L10.23 9.22901C10.128 8.92301 9.621 8.92301 9.519 9.22901L9.203 10.176L8.257 10.491C8.104 10.542 8 10.685 8 10.847C8 11.009 8.104 11.152 8.257 11.203L9.203 11.518L9.519 12.465C9.57 12.618 9.713 12.721 9.874 12.721C10.035 12.721 10.179 12.617 10.229 12.465L10.545 11.518L11.491 11.203C11.644 11.152 11.748 11.009 11.748 10.847C11.748 10.685 11.645 10.542 11.492 10.491Z" fill="#212121"/>
<path d="M12.218 8.72702L14.999 6.01602L9.98902 5.28902L7.74902 0.749023L5.50902 5.28902L0.499023 6.01602L4.12402 9.55002L3.26802 14.539L7.61302 12.255" stroke="#212121" stroke-linecap="round" stroke-linejoin="round"/>
<mask id="path-4-outside-1_2020_1226" maskUnits="userSpaceOnUse" x="4" y="6.99951" width="13" height="8" fill="black">
<rect fill="white" x="4" y="6.99951" width="13" height="8"/>
<path d="M9.13559 12.8635H6.80759L6.40759 13.9995H5.45559L7.44759 8.43151H8.50359L10.4956 13.9995H9.53559L9.13559 12.8635ZM8.87959 12.1195L7.97559 9.53551L7.06359 12.1195H8.87959ZM14.2497 13.9995L12.9697 11.7755H12.2737V13.9995H11.3617V8.43951H13.2817C13.7084 8.43951 14.0684 8.51418 14.3617 8.66351C14.6604 8.81284 14.8817 9.01284 15.0257 9.26351C15.1751 9.51418 15.2497 9.79418 15.2497 10.1035C15.2497 10.4662 15.1431 10.7968 14.9297 11.0955C14.7217 11.3888 14.3991 11.5888 13.9617 11.6955L15.3377 13.9995H14.2497ZM12.2737 11.0475H13.2817C13.6231 11.0475 13.8791 10.9622 14.0497 10.7915C14.2257 10.6208 14.3137 10.3915 14.3137 10.1035C14.3137 9.81551 14.2284 9.59151 14.0577 9.43151C13.8871 9.26618 13.6284 9.18351 13.2817 9.18351H12.2737V11.0475Z"/>
</mask>
<path d="M9.13559 12.8635H6.80759L6.40759 13.9995H5.45559L7.44759 8.43151H8.50359L10.4956 13.9995H9.53559L9.13559 12.8635ZM8.87959 12.1195L7.97559 9.53551L7.06359 12.1195H8.87959ZM14.2497 13.9995L12.9697 11.7755H12.2737V13.9995H11.3617V8.43951H13.2817C13.7084 8.43951 14.0684 8.51418 14.3617 8.66351C14.6604 8.81284 14.8817 9.01284 15.0257 9.26351C15.1751 9.51418 15.2497 9.79418 15.2497 10.1035C15.2497 10.4662 15.1431 10.7968 14.9297 11.0955C14.7217 11.3888 14.3991 11.5888 13.9617 11.6955L15.3377 13.9995H14.2497ZM12.2737 11.0475H13.2817C13.6231 11.0475 13.8791 10.9622 14.0497 10.7915C14.2257 10.6208 14.3137 10.3915 14.3137 10.1035C14.3137 9.81551 14.2284 9.59151 14.0577 9.43151C13.8871 9.26618 13.6284 9.18351 13.2817 9.18351H12.2737V11.0475Z" fill="#111111"/>
<path d="M9.13559 12.8635L10.0788 12.5314C9.93792 12.1312 9.55985 11.8635 9.13559 11.8635V12.8635ZM6.80759 12.8635V11.8635C6.38334 11.8635 6.00526 12.1312 5.86436 12.5314L6.80759 12.8635ZM6.40759 13.9995V14.9995C6.83185 14.9995 7.20992 14.7318 7.35083 14.3316L6.40759 13.9995ZM5.45559 13.9995L4.51404 13.6627C4.40446 13.9689 4.45071 14.3094 4.63802 14.5753C4.82533 14.8413 5.1303 14.9995 5.45559 14.9995V13.9995ZM7.44759 8.43151V7.43151C7.02518 7.43151 6.64833 7.69693 6.50604 8.09466L7.44759 8.43151ZM8.50359 8.43151L9.44515 8.09466C9.30286 7.69693 8.92601 7.43151 8.50359 7.43151V8.43151ZM10.4956 13.9995V14.9995C10.8209 14.9995 11.1259 14.8413 11.3132 14.5753C11.5005 14.3094 11.5467 13.9689 11.4372 13.6627L10.4956 13.9995ZM9.53559 13.9995L8.59236 14.3316C8.73326 14.7318 9.11134 14.9995 9.53559 14.9995V13.9995ZM8.87959 12.1195V13.1195C9.20365 13.1195 9.50761 12.9625 9.69514 12.6982C9.88266 12.4339 9.93051 12.0952 9.8235 11.7893L8.87959 12.1195ZM7.97559 9.53551L8.9195 9.20529C8.77932 8.80461 8.40146 8.5361 7.97697 8.53551C7.55248 8.53493 7.17388 8.8024 7.0326 9.20269L7.97559 9.53551ZM7.06359 12.1195L6.1206 11.7867C6.01259 12.0927 6.05981 12.4322 6.24725 12.6971C6.4347 12.962 6.73906 13.1195 7.06359 13.1195V12.1195ZM9.13559 11.8635H6.80759V13.8635H9.13559V11.8635ZM5.86436 12.5314L5.46436 13.6674L7.35083 14.3316L7.75083 13.1956L5.86436 12.5314ZM6.40759 12.9995H5.45559V14.9995H6.40759V12.9995ZM6.39715 14.3364L8.38915 8.76836L6.50604 8.09466L4.51404 13.6627L6.39715 14.3364ZM7.44759 9.43151H8.50359V7.43151H7.44759V9.43151ZM7.56204 8.76836L9.55404 14.3364L11.4372 13.6627L9.44515 8.09466L7.56204 8.76836ZM10.4956 12.9995H9.53559V14.9995H10.4956V12.9995ZM10.4788 13.6674L10.0788 12.5314L8.19236 13.1956L8.59236 14.3316L10.4788 13.6674ZM9.8235 11.7893L8.9195 9.20529L7.03169 9.86573L7.93569 12.4497L9.8235 11.7893ZM7.0326 9.20269L6.1206 11.7867L8.00658 12.4523L8.91858 9.86833L7.0326 9.20269ZM7.06359 13.1195H8.87959V11.1195H7.06359V13.1195ZM14.2497 13.9995L13.383 14.4983C13.5615 14.8084 13.892 14.9995 14.2497 14.9995V13.9995ZM12.9697 11.7755L13.8364 11.2767C13.658 10.9666 13.3275 10.7755 12.9697 10.7755V11.7755ZM12.2737 11.7755V10.7755C11.7214 10.7755 11.2737 11.2232 11.2737 11.7755H12.2737ZM12.2737 13.9995V14.9995C12.826 14.9995 13.2737 14.5518 13.2737 13.9995H12.2737ZM11.3617 13.9995H10.3617C10.3617 14.5518 10.8094 14.9995 11.3617 14.9995V13.9995ZM11.3617 8.43951V7.43951C10.8094 7.43951 10.3617 7.88723 10.3617 8.43951H11.3617ZM14.3617 8.66351L13.908 9.5547L13.9145 9.55794L14.3617 8.66351ZM15.0257 9.26351L14.1586 9.76164C14.1612 9.76622 14.1639 9.77078 14.1666 9.77532L15.0257 9.26351ZM14.9297 11.0955L14.116 10.5143L14.114 10.5171L14.9297 11.0955ZM13.9617 11.6955L13.7248 10.724C13.4163 10.7992 13.162 11.0164 13.0393 11.3092C12.9167 11.6021 12.9404 11.9357 13.1032 12.2083L13.9617 11.6955ZM15.3377 13.9995V14.9995C15.6976 14.9995 16.0298 14.8061 16.2074 14.4931C16.3851 14.1801 16.3808 13.7958 16.1963 13.4868L15.3377 13.9995ZM12.2737 11.0475H11.2737C11.2737 11.5998 11.7214 12.0475 12.2737 12.0475V11.0475ZM14.0497 10.7915L13.3536 10.0736C13.3499 10.0772 13.3462 10.0808 13.3426 10.0844L14.0497 10.7915ZM14.0577 9.43151L13.3619 10.1498C13.3658 10.1535 13.3698 10.1573 13.3738 10.161L14.0577 9.43151ZM12.2737 9.18351V8.18351C11.7214 8.18351 11.2737 8.63123 11.2737 9.18351H12.2737ZM15.1164 13.5007L13.8364 11.2767L12.103 12.2743L13.383 14.4983L15.1164 13.5007ZM12.9697 10.7755H12.2737V12.7755H12.9697V10.7755ZM11.2737 11.7755V13.9995H13.2737V11.7755H11.2737ZM12.2737 12.9995H11.3617V14.9995H12.2737V12.9995ZM12.3617 13.9995V8.43951H10.3617V13.9995H12.3617ZM11.3617 9.43951H13.2817V7.43951H11.3617V9.43951ZM13.2817 9.43951C13.5958 9.43951 13.7906 9.49489 13.908 9.55467L14.8154 7.77235C14.3462 7.53347 13.8209 7.43951 13.2817 7.43951V9.43951ZM13.9145 9.55794C14.0653 9.63333 14.1271 9.70674 14.1586 9.76164L15.8928 8.76539C15.6364 8.31895 15.2555 7.99236 14.8089 7.76908L13.9145 9.55794ZM14.1666 9.77532C14.2181 9.86178 14.2497 9.96308 14.2497 10.1035H16.2497C16.2497 9.62528 16.132 9.16658 15.8848 8.75171L14.1666 9.77532ZM14.2497 10.1035C14.2497 10.2551 14.2097 10.383 14.116 10.5143L15.7435 11.6767C16.0764 11.2107 16.2497 10.6773 16.2497 10.1035H14.2497ZM14.114 10.5171C14.0777 10.5682 13.9891 10.6595 13.7248 10.724L14.1987 12.667C14.8091 12.5182 15.3657 12.2095 15.7455 11.6739L14.114 10.5171ZM13.1032 12.2083L14.4792 14.5123L16.1963 13.4868L14.8203 11.1828L13.1032 12.2083ZM15.3377 12.9995H14.2497V14.9995H15.3377V12.9995ZM12.2737 12.0475H13.2817V10.0475H12.2737V12.0475ZM13.2817 12.0475C13.7772 12.0475 14.3325 11.923 14.7568 11.4986L13.3426 10.0844C13.3595 10.0675 13.3766 10.0548 13.3912 10.046C13.4055 10.0375 13.4141 10.0346 13.4135 10.0348C13.4104 10.0359 13.372 10.0475 13.2817 10.0475V12.0475ZM14.7459 11.5094C15.15 11.1175 15.3137 10.6109 15.3137 10.1035H13.3137C13.3137 10.1458 13.3074 10.1508 13.3141 10.1333C13.3174 10.1247 13.3227 10.1136 13.3306 10.1017C13.3385 10.0897 13.3467 10.0803 13.3536 10.0736L14.7459 11.5094ZM15.3137 10.1035C15.3137 9.60761 15.159 9.09327 14.7417 8.70197L13.3738 10.161C13.3613 10.1494 13.3488 10.1349 13.3377 10.1182C13.3266 10.1016 13.3195 10.0867 13.3152 10.0755C13.3068 10.0535 13.3137 10.0573 13.3137 10.1035H15.3137ZM14.7535 8.71327C14.3257 8.29882 13.7696 8.18351 13.2817 8.18351V10.1835C13.3788 10.1835 13.4232 10.1955 13.4313 10.198C13.4342 10.199 13.4269 10.1969 13.413 10.1889C13.3988 10.1807 13.3807 10.1679 13.3619 10.1498L14.7535 8.71327ZM13.2817 8.18351H12.2737V10.1835H13.2817V8.18351ZM11.2737 9.18351V11.0475H13.2737V9.18351H11.2737Z" fill="white" mask="url(#path-4-outside-1_2020_1226)"/>
</svg>
