<svg width="20" height="20" viewBox="0 0 20 20" fill="none" xmlns="http://www.w3.org/2000/svg">
<path d="M15 10C15 10.5523 15.4477 11 16 11C16.5523 11 17 10.5523 17 10C17 9.44772 16.5523 9 16 9C15.4477 9 15 9.44772 15 10Z" stroke="#111111" stroke-width="0.5" stroke-miterlimit="10" stroke-linecap="round" stroke-linejoin="round"/>
<path d="M17 19H3C1.895 19 1 18.105 1 17V3C1 1.895 1.895 1 3 1H17C18.105 1 19 1.895 19 3V17C19 18.105 18.105 19 17 19Z" stroke="#111111" stroke-miterlimit="10" stroke-linecap="round" stroke-linejoin="round"/>
<line x1="2.5" y1="1" x2="2.5" y2="19" stroke="#111111"/>
</svg>
