<svg width="21" height="20" viewBox="0 0 21 20" fill="none" xmlns="http://www.w3.org/2000/svg">
<path d="M17.0273 12.0039C19.1235 12.0039 20.8281 13.6858 20.8281 15.7549C20.8281 17.8228 19.1235 19.5059 17.0273 19.5059C14.9313 19.5057 13.2275 17.8227 13.2275 15.7549C13.2276 13.6859 14.9313 12.0041 17.0273 12.0039ZM17.0273 13.7627C15.914 13.7628 15.0098 14.6559 15.0098 15.7549C15.01 16.8525 15.9141 17.746 17.0273 17.7461C18.1406 17.7461 19.0447 16.8526 19.0449 15.7549C19.0449 14.6558 18.1408 13.7627 17.0273 13.7627ZM8.82617 14.875C9.31795 14.8752 9.7168 15.2694 9.7168 15.7549C9.7168 16.2404 9.31795 16.6346 8.82617 16.6348H1.51855C1.02678 16.6346 0.62793 16.2404 0.62793 15.7549C0.62793 15.2694 1.02678 14.8752 1.51855 14.875H8.82617ZM4.42676 0.31543C6.52292 0.31543 8.22754 1.99846 8.22754 4.06641C8.22741 6.13425 6.52283 7.81738 4.42676 7.81738C2.33201 7.81722 0.627084 6.13414 0.626953 4.06641C0.626953 1.99856 2.33193 0.315597 4.42676 0.31543ZM4.42676 2.07422C3.31471 2.07428 2.40942 2.96777 2.40918 4.06543C2.40918 5.16329 3.31457 6.05755 4.42676 6.05762C5.54019 6.05762 6.44434 5.16333 6.44434 4.06543C6.4441 2.96773 5.54005 2.07422 4.42676 2.07422ZM19.9365 3.18652C20.4284 3.18652 20.828 3.58087 20.8281 4.06641C20.8281 4.55202 20.4285 4.94629 19.9365 4.94629H12.6289C12.137 4.94629 11.7373 4.55202 11.7373 4.06641C11.7374 3.58087 12.137 3.18652 12.6289 3.18652H19.9365Z" fill="#ACA9A9"/>
</svg>
