<svg width="115" height="27" viewBox="0 0 115 27" fill="none" xmlns="http://www.w3.org/2000/svg">
<rect width="115" height="27" rx="13.5" fill="#D0C9C0" fill-opacity="0.25"/>
<path d="M31.9957 12.5H31.3949C31.3501 12.2763 31.2692 12.0696 31.152 11.88C31.0369 11.6882 30.892 11.521 30.7173 11.3782C30.5426 11.2354 30.3445 11.1246 30.1229 11.0458C29.9013 10.967 29.6616 10.9276 29.4038 10.9276C28.9904 10.9276 28.6133 11.0352 28.2724 11.2504C27.9336 11.4656 27.6619 11.782 27.4574 12.1996C27.255 12.6151 27.1538 13.1243 27.1538 13.7273C27.1538 14.3345 27.255 14.8459 27.4574 15.2614C27.6619 15.6768 27.9336 15.9922 28.2724 16.2074C28.6133 16.4205 28.9904 16.527 29.4038 16.527C29.6616 16.527 29.9013 16.4876 30.1229 16.4087C30.3445 16.3299 30.5426 16.2202 30.7173 16.0795C30.892 15.9368 31.0369 15.7695 31.152 15.5778C31.2692 15.386 31.3501 15.1783 31.3949 14.9545H31.9957C31.9425 15.255 31.8423 15.5352 31.6953 15.7951C31.5504 16.0529 31.3651 16.2788 31.1392 16.4727C30.9155 16.6665 30.6577 16.8178 30.3658 16.9265C30.0739 17.0352 29.7532 17.0895 29.4038 17.0895C28.854 17.0895 28.3661 16.9521 27.94 16.6772C27.5138 16.4002 27.1793 16.0103 26.9364 15.5075C26.6957 15.0046 26.5753 14.4112 26.5753 13.7273C26.5753 13.0433 26.6957 12.4499 26.9364 11.9471C27.1793 11.4442 27.5138 11.0554 27.94 10.7805C28.3661 10.5036 28.854 10.3651 29.4038 10.3651C29.7532 10.3651 30.0739 10.4194 30.3658 10.5281C30.6577 10.6346 30.9155 10.7859 31.1392 10.9819C31.3651 11.1758 31.5504 11.4016 31.6953 11.6594C31.8423 11.9173 31.9425 12.1974 31.9957 12.5ZM39.6657 13.7273C39.6657 14.4091 39.5443 15.0025 39.3014 15.5075C39.0585 16.0103 38.724 16.4002 38.2978 16.6772C37.8738 16.9521 37.3859 17.0895 36.834 17.0895C36.2822 17.0895 35.7932 16.9521 35.3671 16.6772C34.9431 16.4002 34.6096 16.0103 34.3667 15.5075C34.1259 15.0025 34.0056 14.4091 34.0056 13.7273C34.0056 13.0455 34.1259 12.4531 34.3667 11.9503C34.6096 11.4453 34.9441 11.0554 35.3703 10.7805C35.7964 10.5036 36.2843 10.3651 36.834 10.3651C37.3859 10.3651 37.8738 10.5036 38.2978 10.7805C38.724 11.0554 39.0585 11.4453 39.3014 11.9503C39.5443 12.4531 39.6657 13.0455 39.6657 13.7273ZM39.084 13.7273C39.084 13.1413 38.986 12.6396 38.79 12.2219C38.594 11.8022 38.3266 11.4815 37.9878 11.2599C37.649 11.0384 37.2644 10.9276 36.834 10.9276C36.4058 10.9276 36.0222 11.0384 35.6835 11.2599C35.3447 11.4815 35.0762 11.8011 34.8781 12.2188C34.682 12.6364 34.584 13.1392 34.584 13.7273C34.584 14.3132 34.682 14.815 34.8781 15.2326C35.0741 15.6502 35.3415 15.9709 35.6803 16.1946C36.0191 16.4162 36.4036 16.527 36.834 16.527C37.2644 16.527 37.649 16.4162 37.9878 16.1946C38.3287 15.973 38.5972 15.6534 38.7932 15.2358C38.9892 14.8161 39.0862 14.3132 39.084 13.7273ZM47.1088 10.4545V17H46.5271L42.6599 11.5188H42.6088V17H42.0111V10.4545H42.5896L46.4696 15.9421H46.5207V10.4545H47.1088ZM49.749 17V10.4545H53.5363V10.9915H50.3467V13.4556H53.2391V13.9925H50.3467V17H49.749ZM56.5201 10.4545V17H55.9224V10.4545H56.5201ZM63.6891 12.5C63.6294 12.2827 63.5421 12.0792 63.427 11.8896C63.312 11.6978 63.1692 11.5305 62.9988 11.3878C62.8304 11.2429 62.6355 11.13 62.4139 11.049C62.1944 10.968 61.9494 10.9276 61.6788 10.9276C61.2527 10.9276 60.8713 11.0384 60.5346 11.2599C60.198 11.4815 59.9316 11.8011 59.7356 12.2188C59.5417 12.6364 59.4448 13.1392 59.4448 13.7273C59.4448 14.3132 59.5428 14.815 59.7388 15.2326C59.9348 15.6502 60.2033 15.9709 60.5442 16.1946C60.8873 16.4162 61.2793 16.527 61.7203 16.527C62.123 16.527 62.4789 16.4375 62.7878 16.2585C63.0968 16.0795 63.3375 15.8239 63.5101 15.4915C63.6848 15.1591 63.7701 14.7638 63.7658 14.3058L63.9576 14.3665H61.861V13.8295H64.3475V14.3665C64.3475 14.9247 64.2346 15.4073 64.0087 15.8143C63.7828 16.2212 63.4728 16.5355 63.0787 16.7571C62.6845 16.9787 62.2317 17.0895 61.7203 17.0895C61.1493 17.0895 60.6497 16.9521 60.2214 16.6772C59.7931 16.4002 59.4597 16.0103 59.2211 15.5075C58.9846 15.0025 58.8663 14.4091 58.8663 13.7273C58.8663 13.2138 58.9345 12.7504 59.0708 12.337C59.2072 11.9237 59.4 11.57 59.6493 11.2759C59.9007 10.9819 60.198 10.7571 60.541 10.6016C60.8841 10.4439 61.2633 10.3651 61.6788 10.3651C62.0368 10.3651 62.3638 10.4215 62.66 10.5344C62.9583 10.6474 63.2203 10.8029 63.4462 11.0011C63.6742 11.1971 63.8606 11.424 64.0055 11.6818C64.1525 11.9375 64.2516 12.2102 64.3027 12.5H63.6891ZM75.2889 12.5H74.688C74.6433 12.2763 74.5623 12.0696 74.4452 11.88C74.3301 11.6882 74.1852 11.521 74.0105 11.3782C73.8358 11.2354 73.6376 11.1246 73.416 11.0458C73.1944 10.967 72.9547 10.9276 72.6969 10.9276C72.2836 10.9276 71.9064 11.0352 71.5655 11.2504C71.2268 11.4656 70.9551 11.782 70.7505 12.1996C70.5481 12.6151 70.4469 13.1243 70.4469 13.7273C70.4469 14.3345 70.5481 14.8459 70.7505 15.2614C70.9551 15.6768 71.2268 15.9922 71.5655 16.2074C71.9064 16.4205 72.2836 16.527 72.6969 16.527C72.9547 16.527 73.1944 16.4876 73.416 16.4087C73.6376 16.3299 73.8358 16.2202 74.0105 16.0795C74.1852 15.9368 74.3301 15.7695 74.4452 15.5778C74.5623 15.386 74.6433 15.1783 74.688 14.9545H75.2889C75.2356 15.255 75.1355 15.5352 74.9885 15.7951C74.8436 16.0529 74.6582 16.2788 74.4324 16.4727C74.2086 16.6665 73.9508 16.8178 73.6589 16.9265C73.367 17.0352 73.0464 17.0895 72.6969 17.0895C72.1472 17.0895 71.6593 16.9521 71.2331 16.6772C70.807 16.4002 70.4725 16.0103 70.2296 15.5075C69.9888 15.0046 69.8684 14.4112 69.8684 13.7273C69.8684 13.0433 69.9888 12.4499 70.2296 11.9471C70.4725 11.4442 70.807 11.0554 71.2331 10.7805C71.6593 10.5036 72.1472 10.3651 72.6969 10.3651C73.0464 10.3651 73.367 10.4194 73.6589 10.5281C73.9508 10.6346 74.2086 10.7859 74.4324 10.9819C74.6582 11.1758 74.8436 11.4016 74.9885 11.6594C75.1355 11.9173 75.2356 12.1974 75.2889 12.5ZM77.5928 17V10.4545H78.1904V16.4631H81.3097V17H77.5928ZM88.6665 13.7273C88.6665 14.4091 88.545 15.0025 88.3021 15.5075C88.0592 16.0103 87.7247 16.4002 87.2986 16.6772C86.8746 16.9521 86.3867 17.0895 85.8348 17.0895C85.283 17.0895 84.794 16.9521 84.3678 16.6772C83.9438 16.4002 83.6104 16.0103 83.3675 15.5075C83.1267 15.0025 83.0063 14.4091 83.0063 13.7273C83.0063 13.0455 83.1267 12.4531 83.3675 11.9503C83.6104 11.4453 83.9449 11.0554 84.371 10.7805C84.7972 10.5036 85.2851 10.3651 85.8348 10.3651C86.3867 10.3651 86.8746 10.5036 87.2986 10.7805C87.7247 11.0554 88.0592 11.4453 88.3021 11.9503C88.545 12.4531 88.6665 13.0455 88.6665 13.7273ZM88.0848 13.7273C88.0848 13.1413 87.9868 12.6396 87.7908 12.2219C87.5948 11.8022 87.3274 11.4815 86.9886 11.2599C86.6498 11.0384 86.2652 10.9276 85.8348 10.9276C85.4066 10.9276 85.023 11.0384 84.6842 11.2599C84.3455 11.4815 84.077 11.8011 83.8789 12.2188C83.6828 12.6364 83.5848 13.1392 83.5848 13.7273C83.5848 14.3132 83.6828 14.815 83.8789 15.2326C84.0749 15.6502 84.3423 15.9709 84.6811 16.1946C85.0198 16.4162 85.4044 16.527 85.8348 16.527C86.2652 16.527 86.6498 16.4162 86.9886 16.1946C87.3295 15.973 87.598 15.6534 87.794 15.2358C87.99 14.8161 88.0869 14.3132 88.0848 13.7273ZM100.527 17H98.6092V10.4545H100.642C101.266 10.4545 101.8 10.5845 102.243 10.8445C102.688 11.1044 103.029 11.4773 103.266 11.9631C103.502 12.4489 103.621 13.0316 103.621 13.7113C103.621 14.3974 103.499 14.9865 103.256 15.4787C103.015 15.9687 102.664 16.3448 102.201 16.6069C101.741 16.869 101.183 17 100.527 17ZM99.2068 16.4631H100.492C101.054 16.4631 101.525 16.3523 101.904 16.1307C102.284 15.9091 102.568 15.5927 102.758 15.1815C102.947 14.7702 103.042 14.2802 103.042 13.7113C103.04 13.1467 102.946 12.6609 102.761 12.2539C102.578 11.8469 102.305 11.5348 101.943 11.3175C101.583 11.1001 101.137 10.9915 100.607 10.9915H99.2068V16.4631Z" fill="#1B1B1B"/>
<path d="M95.3745 10.4545H95.9721V14.7884C95.9721 15.2337 95.8677 15.6321 95.6589 15.9837C95.4501 16.3331 95.1593 16.609 94.7864 16.8114C94.4157 17.0117 93.9842 17.1119 93.492 17.1119C93.002 17.1119 92.5705 17.0107 92.1976 16.8082C91.8248 16.6058 91.5339 16.3299 91.3251 15.9805C91.1163 15.631 91.0119 15.2337 91.0119 14.7884V10.4545H91.6096V14.7468C91.6096 15.0941 91.6873 15.4041 91.8429 15.6768C91.9984 15.9474 92.2168 16.1605 92.498 16.3161C92.7814 16.4716 93.1127 16.5494 93.492 16.5494C93.8713 16.5494 94.2026 16.4716 94.486 16.3161C94.7694 16.1605 94.9877 15.9474 95.1412 15.6768C95.2967 15.4041 95.3745 15.0941 95.3745 14.7468V10.4545Z" fill="black"/>
<path d="M9 11.5885V18.3689L12 20M9 11.5885L12 13.2836M9 11.5885L15 8L18 9.63112M12 20V13.2836M12 20L18 16.4115V9.63112M12 13.2836L18 9.63112" stroke="black" stroke-width="0.5"/>
</svg>
