<svg width="16" height="15" viewBox="0 0 16 15" fill="none" xmlns="http://www.w3.org/2000/svg">
<path d="M6.16797 6.58297C6.16797 6.36103 6.36295 6.16602 6.58491 6.16602H9.41326C9.63861 6.16602 9.83477 6.36401 9.83477 6.58297V9.41131C9.83477 9.63324 9.63523 9.83282 9.41326 9.83282H6.58491C6.36599 9.83282 6.16797 9.63669 6.16797 9.41131V6.58297Z" stroke="#111111"/>
<path d="M0.626473 14.0009C0.607722 14.2072 0.759726 14.3896 0.965982 14.4083L4.32712 14.7139C4.53338 14.7327 4.71578 14.5807 4.73453 14.3744C4.75328 14.1681 4.60128 13.9857 4.39502 13.967L1.40734 13.6954L1.67895 10.7077C1.6977 10.5014 1.5457 10.319 1.33944 10.3003C1.13319 10.2815 0.950781 10.4335 0.932031 10.6398L0.626473 14.0009ZM3.65642 11.333L0.759864 13.7468L1.24 14.323L4.13655 11.9092L3.65642 11.333Z" fill="#111111"/>
<path d="M15.3735 1.03422C15.3923 0.827964 15.2403 0.64556 15.034 0.62681L11.6729 0.321251C11.4666 0.302501 11.2842 0.454504 11.2655 0.66076C11.2467 0.867017 11.3987 1.04942 11.605 1.06817L14.5927 1.33978L14.321 4.32746C14.3023 4.53371 14.4543 4.71612 14.6606 4.73487C14.8668 4.75362 15.0492 4.60162 15.068 4.39536L15.3735 1.03422ZM12.3436 3.70215L15.2401 1.28835L14.76 0.712187L11.8634 3.12598L12.3436 3.70215Z" fill="#111111"/>
<path d="M15.034 14.4083C15.2403 14.3896 15.3923 14.2072 15.3735 14.0009L15.068 10.6398C15.0492 10.4335 14.8668 10.2815 14.6606 10.3003C14.4543 10.319 14.3023 10.5014 14.321 10.7077L14.5927 13.6954L11.605 13.967C11.3987 13.9857 11.2467 14.1681 11.2655 14.3744C11.2842 14.5807 11.4666 14.7327 11.6729 14.7139L15.034 14.4083ZM11.8634 11.9092L14.76 14.323L15.2401 13.7468L12.3436 11.333L11.8634 11.9092Z" fill="#111111"/>
<path d="M0.965982 0.626809C0.759726 0.64556 0.607723 0.827964 0.626473 1.03422L0.932031 4.39536C0.950781 4.60162 1.13319 4.75362 1.33944 4.73487C1.5457 4.71612 1.6977 4.53371 1.67895 4.32746L1.40734 1.33978L4.39502 1.06817C4.60128 1.04942 4.75328 0.867017 4.73453 0.660761C4.71578 0.454504 4.53338 0.302501 4.32712 0.321252L0.965982 0.626809ZM4.13655 3.12598L1.24 0.712186L0.759864 1.28835L3.65642 3.70215L4.13655 3.12598Z" fill="#111111"/>
</svg>
