<svg width="20" height="20" viewBox="0 0 20 20" fill="none" xmlns="http://www.w3.org/2000/svg">
<rect x="0.15" y="0.15" width="19.7" height="19.7" rx="2.85" fill="white"/>
<rect x="0.15" y="0.15" width="19.7" height="19.7" rx="2.85" stroke="black" stroke-width="0.3"/>
<path d="M14.7728 5.54H12.0455V4.6765C12.0455 4.30361 11.7319 4 11.3466 4H8.6534C8.26818 4 7.95454 4.30359 7.95454 4.6765V5.54H5.22727C5.10227 5.54 5 5.639 5 5.76C5 5.881 5.10227 5.98 5.22727 5.98H5.68182V13.8945C5.68182 14.5039 6.19431 15 6.82386 15H13.1761C13.8057 15 14.3182 14.5039 14.3182 13.8945V5.98H14.7727C14.8977 5.98 15 5.881 15 5.76C15 5.639 14.8978 5.54 14.7728 5.54ZM8.40914 4.6765C8.40914 4.5467 8.51823 4.44 8.65346 4.44H11.3477C11.4818 4.44 11.592 4.5456 11.592 4.6765V5.54H8.40905L8.40914 4.6765ZM13.8637 13.8945C13.8637 14.2608 13.5557 14.56 13.1762 14.56H6.82389C6.44548 14.56 6.13639 14.2619 6.13639 13.8945V5.98003H13.8636L13.8637 13.8945ZM8.86368 7.96009V12.3601C8.86368 12.4811 8.76141 12.5801 8.63641 12.5801C8.51141 12.5801 8.40914 12.4811 8.40914 12.3601V7.96009C8.40914 7.83909 8.51141 7.74009 8.63641 7.74009C8.76141 7.74009 8.86368 7.83909 8.86368 7.96009ZM11.5909 7.96009V12.3601C11.5909 12.4811 11.4887 12.5801 11.3637 12.5801C11.2387 12.5801 11.1364 12.4811 11.1364 12.3601V7.96009C11.1364 7.83909 11.2387 7.74009 11.3637 7.74009C11.4887 7.74009 11.5909 7.83909 11.5909 7.96009Z" fill="black"/>
</svg>
