<svg width="13" height="13" viewBox="0 0 13 13" fill="none" xmlns="http://www.w3.org/2000/svg">
<path d="M10.103 4.86165L4.63601 10.3286C4.49452 10.4701 4.23129 10.6164 3.88229 10.7555C3.54073 10.8917 3.14495 11.0103 2.7639 11.1084C2.32811 11.2207 1.9186 11.3044 1.64324 11.3562C1.6951 11.0809 1.77884 10.6714 1.89109 10.2356C1.98924 9.85453 2.10783 9.45875 2.24396 9.1172C2.38307 8.7682 2.52938 8.50497 2.67087 8.3635L2.67087 8.36349L8.13784 2.89652L10.103 4.86165Z" fill="#A89378" fill-opacity="0.87" stroke="#111111" stroke-width="0.5"/>
<path d="M6.90787 3.77343L4.35885 1.22441C4.05964 0.925197 3.57524 0.925197 3.27679 1.22441L1.22441 3.27679C0.925197 3.576 0.925197 4.0604 1.22441 4.35885L3.77343 6.90787" stroke="#111111" stroke-width="0.5" stroke-linecap="round" stroke-linejoin="round"/>
<path d="M6.0918 9.2269L8.64082 11.7759C8.94003 12.0751 9.42442 12.0751 9.72287 11.7759L11.7753 9.72354C12.0745 9.42433 12.0745 8.93994 11.7753 8.64149L10.5654 7.43164" stroke="#111111" stroke-width="0.5" stroke-linecap="round" stroke-linejoin="round"/>
<path d="M2.22656 5.36272L3.57951 4.00977" stroke="#111111" stroke-width="0.5" stroke-linecap="round" stroke-linejoin="round"/>
<path d="M7.63672 10.7729L8.98967 9.41992" stroke="#111111" stroke-width="0.5" stroke-linecap="round" stroke-linejoin="round"/>
<path d="M1.33398 11.6645C1.33398 11.6645 4.0881 11.2298 4.81278 10.5051C5.53747 9.78046 11.3763 3.94165 11.3763 3.94165C12.0168 3.30114 12.0168 2.2627 11.3763 1.62296C10.7358 0.982451 9.69733 0.982451 9.05759 1.62296C9.05759 1.62296 3.21878 7.46177 2.49409 8.18646C1.76941 8.91115 1.33475 11.6653 1.33475 11.6653L1.33398 11.6645Z" stroke="#111111" stroke-width="0.5" stroke-linecap="round" stroke-linejoin="round"/>
<path d="M8.12305 2.55859L10.4425 4.87805" stroke="#111111" stroke-width="0.5" stroke-linecap="round" stroke-linejoin="round"/>
</svg>
