<svg width="24" height="26" viewBox="0 0 24 26" fill="none" xmlns="http://www.w3.org/2000/svg">
<path d="M18.1488 6.64129L15.5836 5.17556V6.55027L17.5796 7.68749C18.8704 8.61495 19.7209 10.0824 19.7949 11.7501V11.7614L19.787 17.9407L14.3415 21.0611C13.7217 21.4035 12.9827 21.6045 12.1967 21.6045C12.1367 21.6045 12.0766 21.6037 12.0174 21.6011H12.0261C11.9704 21.6037 11.9043 21.6045 11.839 21.6045C11.0686 21.6045 10.3418 21.4182 9.70202 21.0897L9.72813 21.1018L7.81576 20.0071L6.60844 20.7014L9.25025 22.2061C10.0102 22.5684 10.9024 22.779 11.8442 22.779C11.9051 22.779 11.9661 22.7782 12.0261 22.7764H12.0174C13.0437 22.7695 14.0151 22.5424 14.889 22.1402L14.8464 22.1584L20.9952 18.6211L20.9874 11.8775C20.9439 9.70796 19.8393 7.80364 18.1697 6.65429L18.148 6.64042L18.1488 6.64129ZM11.1853 18.0811C11.4272 18.1201 11.7049 18.1418 11.9887 18.1418C12.8792 18.1418 13.7191 17.9225 14.4555 17.5359L14.4268 17.5497L16.7883 16.1958C16.7883 16.1958 16.7918 15.0075 16.7918 13.2323C16.6691 12.1211 16.233 11.1295 15.5741 10.326L15.5819 10.3364L15.5845 15.5527L11.1853 18.0811ZM24 20.3356L15.5027 25.2138C14.5313 25.7088 13.3831 25.9983 12.1671 25.9983C12.1114 25.9983 12.0557 25.9974 12 25.9965H12.0078C11.9399 25.9991 11.8607 26 11.7806 26C10.5716 26 9.43305 25.6992 8.43639 25.1696L8.47469 25.1878L0.604091 20.704L12.5789 13.8494V-5.62908e-07L20.4599 4.4804C21.4931 5.14089 22.3305 6.02067 22.9198 7.05907L22.9389 7.09548C23.4803 8.0134 23.8564 9.09254 23.9956 10.2436L23.9991 10.2835L24 20.3356ZM0 16.2192L8.39373 11.4233L8.38764 9.99313L3.61236 12.7209L0.606703 11.0203L8.38155 6.55807L8.38677 5.18249L0.0565792 9.95413C0.287248 8.57941 0.817351 7.35811 1.57812 6.31451L1.56071 6.33964C2.12389 5.55607 2.82983 4.91119 3.64631 4.43272L3.67764 4.41539L11.3768 0.00173205V13.163L0.00609311 19.6656L0 16.2192Z" fill="#1E5C93"/>
</svg>
