<svg width="18" height="21" viewBox="0 0 18 21" fill="none" xmlns="http://www.w3.org/2000/svg">
<path d="M11.6118 0.220215H11.7476C11.9536 0.220238 12.1507 0.304101 12.2935 0.452637L17.4106 5.78174C17.546 5.92269 17.6214 6.11075 17.6216 6.30615V15.5894C17.6215 18.1093 15.5774 20.2728 13.0972 20.2729H5.02881C2.41971 20.2729 0.398057 18.213 0.397949 15.5894V4.74365C0.398209 2.2579 2.51662 0.220215 5.02881 0.220215H11.355C11.3963 0.213235 11.4386 0.208496 11.4819 0.208496C11.5263 0.2085 11.5696 0.212904 11.6118 0.220215ZM5.02881 1.73486C3.34069 1.73486 1.91388 3.10797 1.91357 4.74365V15.5894C1.91364 17.3826 3.263 18.7583 5.02881 18.7583H13.0972C14.7209 18.7581 16.1069 17.291 16.1069 15.5894L16.106 7.26123L15.2212 7.26514C14.8844 7.26473 14.5006 7.26318 14.0747 7.26221C12.2868 7.25821 10.8285 5.85775 10.73 4.09424L10.7241 3.90381V1.73389L5.02881 1.73486ZM8.62061 6.96631C9.00386 6.96647 9.32031 7.25111 9.37061 7.62061L9.37744 7.72412V12.5278L10.9507 10.9497C11.2458 10.6533 11.7255 10.6517 12.022 10.9468C12.2915 11.2152 12.3166 11.6361 12.0972 11.9331L12.0239 12.0181L9.15674 14.8979C9.08658 14.9684 9.00546 15.021 8.91943 15.0581C8.90961 15.0623 8.8992 15.065 8.88916 15.0688C8.8548 15.0819 8.82025 15.0932 8.78467 15.1011C8.75244 15.1082 8.71967 15.1138 8.68604 15.1167C8.67366 15.1178 8.66133 15.1182 8.64893 15.1187C8.63951 15.119 8.6301 15.1206 8.62061 15.1206C8.61022 15.1206 8.59964 15.1181 8.58936 15.1177C8.56214 15.1166 8.5353 15.1139 8.5083 15.1099C8.48808 15.1069 8.4684 15.1027 8.44873 15.0981C8.42198 15.0919 8.3957 15.0848 8.36963 15.0757C8.35534 15.0707 8.34152 15.0649 8.32764 15.0591C8.30135 15.048 8.27564 15.0361 8.25049 15.022C8.23284 15.0121 8.21546 15.002 8.19873 14.9907C8.18896 14.9841 8.17798 14.9793 8.16846 14.9722L8.13818 14.9458C8.12679 14.9364 8.1158 14.9266 8.10498 14.9165L8.0835 14.8979L5.21631 12.0181C4.92133 11.7215 4.92278 11.2419 5.21924 10.9468C5.48878 10.6787 5.9096 10.6549 6.20557 10.8755L6.29053 10.9497L7.86279 12.5298V7.72412C7.86279 7.30574 8.20222 6.96631 8.62061 6.96631ZM12.2397 3.90381C12.2397 4.92051 13.0621 5.74541 14.0786 5.74756H15.2769L12.2397 2.5835V3.90381Z" fill="#ACA9A9"/>
</svg>
