<svg width="19" height="25" viewBox="0 0 19 25" fill="none" xmlns="http://www.w3.org/2000/svg">
<path d="M6.96088 17.26L8.03088 19H7.51588L6.68088 17.64L5.88588 19H5.38088L6.44588 17.26L5.37588 15.515H5.88588L6.72588 16.88L7.52588 15.515H8.03588L6.96088 17.26ZM9.34635 18.63H10.5663V19H8.89135V15.515H9.34635V18.63ZM12.4046 19.035C12.1746 19.035 11.9679 18.995 11.7846 18.915C11.6046 18.8317 11.4629 18.7183 11.3596 18.575C11.2562 18.4283 11.2029 18.26 11.1996 18.07H11.6846C11.7012 18.2333 11.7679 18.3717 11.8846 18.485C12.0046 18.595 12.1779 18.65 12.4046 18.65C12.6212 18.65 12.7912 18.5967 12.9146 18.49C13.0412 18.38 13.1046 18.24 13.1046 18.07C13.1046 17.9367 13.0679 17.8283 12.9946 17.745C12.9212 17.6617 12.8296 17.5983 12.7196 17.555C12.6096 17.5117 12.4612 17.465 12.2746 17.415C12.0446 17.355 11.8596 17.295 11.7196 17.235C11.5829 17.175 11.4646 17.0817 11.3646 16.955C11.2679 16.825 11.2196 16.6517 11.2196 16.435C11.2196 16.245 11.2679 16.0767 11.3646 15.93C11.4612 15.7833 11.5962 15.67 11.7696 15.59C11.9462 15.51 12.1479 15.47 12.3746 15.47C12.7012 15.47 12.9679 15.5517 13.1746 15.715C13.3846 15.8783 13.5029 16.095 13.5296 16.365H13.0296C13.0129 16.2317 12.9429 16.115 12.8196 16.015C12.6962 15.9117 12.5329 15.86 12.3296 15.86C12.1396 15.86 11.9846 15.91 11.8646 16.01C11.7446 16.1067 11.6846 16.2433 11.6846 16.42C11.6846 16.5467 11.7196 16.65 11.7896 16.73C11.8629 16.81 11.9512 16.8717 12.0546 16.915C12.1612 16.955 12.3096 17.0017 12.4996 17.055C12.7296 17.1183 12.9146 17.1817 13.0546 17.245C13.1946 17.305 13.3146 17.4 13.4146 17.53C13.5146 17.6567 13.5646 17.83 13.5646 18.05C13.5646 18.22 13.5196 18.38 13.4296 18.53C13.3396 18.68 13.2062 18.8017 13.0296 18.895C12.8529 18.9883 12.6446 19.035 12.4046 19.035Z" fill="black"/>
<path d="M0.5 23V2C0.5 1.44772 0.947715 1 1.5 1H13.6198C13.8647 1 14.1011 1.08988 14.2842 1.25259L18.1644 4.70166C18.3779 4.89142 18.5 5.16343 18.5 5.44907V23C18.5 23.5523 18.0523 24 17.5 24H1.5C0.947715 24 0.5 23.5523 0.5 23Z" stroke="black"/>
<path d="M13 5.5V1.20711C13 0.761654 13.5386 0.538571 13.8536 0.853554L18.1464 5.14645C18.4614 5.46143 18.2383 6 17.7929 6H13.5C13.2239 6 13 5.77614 13 5.5Z" fill="black"/>
</svg>
