<svg width="50" height="48" viewBox="0 0 50 48" fill="none" xmlns="http://www.w3.org/2000/svg">
<g filter="url(#filter0_d_1953_1994)">
<rect x="45.1885" y="0.5" width="39" height="40.0753" rx="1.5" transform="rotate(90 45.1885 0.5)" stroke="#606060" shape-rendering="crispEdges"/>
</g>
<rect x="12.25" y="4.25" width="25.5" height="30.5" fill="#D9D9D9" stroke="#606060" stroke-width="0.5"/>
<path d="M17.3058 29.048C17.1671 29.048 17.0498 29 16.9538 28.904C16.8578 28.808 16.8098 28.6907 16.8098 28.552C16.8098 28.4133 16.8578 28.296 16.9538 28.2C17.0498 28.104 17.1671 28.056 17.3058 28.056C17.4391 28.056 17.5511 28.104 17.6418 28.2C17.7378 28.296 17.7858 28.4133 17.7858 28.552C17.7858 28.6907 17.7378 28.808 17.6418 28.904C17.5511 29 17.4391 29.048 17.3058 29.048ZM21.4415 29L20.4015 27.368L19.4015 29H18.6415L20.0575 26.824L18.6415 24.616H19.4655L20.5055 26.24L21.4975 24.616H22.2575L20.8495 26.784L22.2655 29H21.4415ZM24.1096 23.08V29H23.3816V23.08H24.1096ZM27.3024 29.072C26.9664 29.072 26.665 29.016 26.3984 28.904C26.1317 28.7867 25.921 28.6267 25.7664 28.424C25.6117 28.216 25.5264 27.9787 25.5104 27.712H26.2624C26.2837 27.9307 26.385 28.1093 26.5664 28.248C26.753 28.3867 26.9957 28.456 27.2944 28.456C27.5717 28.456 27.7904 28.3947 27.9504 28.272C28.1104 28.1493 28.1904 27.9947 28.1904 27.808C28.1904 27.616 28.105 27.4747 27.9344 27.384C27.7637 27.288 27.4997 27.1947 27.1424 27.104C26.817 27.0187 26.5504 26.9333 26.3424 26.848C26.1397 26.7573 25.9637 26.6267 25.8144 26.456C25.6704 26.28 25.5984 26.0507 25.5984 25.768C25.5984 25.544 25.665 25.3387 25.7984 25.152C25.9317 24.9653 26.121 24.8187 26.3664 24.712C26.6117 24.6 26.8917 24.544 27.2064 24.544C27.6917 24.544 28.0837 24.6667 28.3824 24.912C28.681 25.1573 28.841 25.4933 28.8624 25.92H28.1344C28.1184 25.6907 28.025 25.5067 27.8544 25.368C27.689 25.2293 27.465 25.16 27.1824 25.16C26.921 25.16 26.713 25.216 26.5584 25.328C26.4037 25.44 26.3264 25.5867 26.3264 25.768C26.3264 25.912 26.3717 26.032 26.4624 26.128C26.5584 26.2187 26.6757 26.2933 26.8144 26.352C26.9584 26.4053 27.1557 26.4667 27.4064 26.536C27.721 26.6213 27.977 26.7067 28.1744 26.792C28.3717 26.872 28.5397 26.9947 28.6784 27.16C28.8224 27.3253 28.897 27.5413 28.9024 27.808C28.9024 28.048 28.8357 28.264 28.7024 28.456C28.569 28.648 28.3797 28.8 28.1344 28.912C27.8944 29.0187 27.617 29.072 27.3024 29.072ZM32.6181 29L31.5781 27.368L30.5781 29H29.8181L31.2341 26.824L29.8181 24.616H30.6421L31.6821 26.24L32.6741 24.616H33.4341L32.0261 26.784L33.4421 29H32.6181Z" fill="#606060"/>
<defs>
<filter id="filter0_d_1953_1994" x="0.613281" y="0" width="49.0752" height="48" filterUnits="userSpaceOnUse" color-interpolation-filters="sRGB">
<feFlood flood-opacity="0" result="BackgroundImageFix"/>
<feColorMatrix in="SourceAlpha" type="matrix" values="0 0 0 0 0 0 0 0 0 0 0 0 0 0 0 0 0 0 127 0" result="hardAlpha"/>
<feOffset dy="4"/>
<feGaussianBlur stdDeviation="2"/>
<feComposite in2="hardAlpha" operator="out"/>
<feColorMatrix type="matrix" values="0 0 0 0 0 0 0 0 0 0 0 0 0 0 0 0 0 0 0.25 0"/>
<feBlend mode="normal" in2="BackgroundImageFix" result="effect1_dropShadow_1953_1994"/>
<feBlend mode="normal" in="SourceGraphic" in2="effect1_dropShadow_1953_1994" result="shape"/>
</filter>
</defs>
</svg>
