<svg width="19" height="25" viewBox="0 0 19 25" fill="none" xmlns="http://www.w3.org/2000/svg">
<path d="M6.32838 19.035C6.09838 19.035 5.89171 18.995 5.70838 18.915C5.52838 18.8317 5.38671 18.7183 5.28338 18.575C5.18005 18.4283 5.12671 18.26 5.12338 18.07H5.60838C5.62505 18.2333 5.69171 18.3717 5.80838 18.485C5.92838 18.595 6.10171 18.65 6.32838 18.65C6.54505 18.65 6.71505 18.5967 6.83838 18.49C6.96505 18.38 7.02838 18.24 7.02838 18.07C7.02838 17.9367 6.99171 17.8283 6.91838 17.745C6.84505 17.6617 6.75338 17.5983 6.64338 17.555C6.53338 17.5117 6.38505 17.465 6.19838 17.415C5.96838 17.355 5.78338 17.295 5.64338 17.235C5.50671 17.175 5.38838 17.0817 5.28838 16.955C5.19171 16.825 5.14338 16.6517 5.14338 16.435C5.14338 16.245 5.19171 16.0767 5.28838 15.93C5.38505 15.7833 5.52005 15.67 5.69338 15.59C5.87005 15.51 6.07171 15.47 6.29838 15.47C6.62505 15.47 6.89171 15.5517 7.09838 15.715C7.30838 15.8783 7.42671 16.095 7.45338 16.365H6.95338C6.93671 16.2317 6.86671 16.115 6.74338 16.015C6.62005 15.9117 6.45671 15.86 6.25338 15.86C6.06338 15.86 5.90838 15.91 5.78838 16.01C5.66838 16.1067 5.60838 16.2433 5.60838 16.42C5.60838 16.5467 5.64338 16.65 5.71338 16.73C5.78671 16.81 5.87505 16.8717 5.97838 16.915C6.08505 16.955 6.23338 17.0017 6.42338 17.055C6.65338 17.1183 6.83838 17.1817 6.97838 17.245C7.11838 17.305 7.23838 17.4 7.33838 17.53C7.43838 17.6567 7.48838 17.83 7.48838 18.05C7.48838 18.22 7.44338 18.38 7.35338 18.53C7.26338 18.68 7.13005 18.8017 6.95338 18.895C6.77671 18.9883 6.56838 19.035 6.32838 19.035ZM10.2979 19L8.86295 17.41V19H8.40795V15.515H8.86295V17.13L10.3029 15.515H10.8779L9.29795 17.26L10.8929 19H10.2979ZM13.9811 16.535C13.9811 16.825 13.8811 17.0667 13.6811 17.26C13.4844 17.45 13.1828 17.545 12.7761 17.545H12.1061V19H11.6511V15.515H12.7761C13.1694 15.515 13.4678 15.61 13.6711 15.8C13.8778 15.99 13.9811 16.235 13.9811 16.535ZM12.7761 17.17C13.0294 17.17 13.2161 17.115 13.3361 17.005C13.4561 16.895 13.5161 16.7383 13.5161 16.535C13.5161 16.105 13.2694 15.89 12.7761 15.89H12.1061V17.17H12.7761Z" fill="black"/>
<path d="M0.5 23V2C0.5 1.44772 0.947715 1 1.5 1H13.6198C13.8647 1 14.1011 1.08988 14.2842 1.25259L18.1644 4.70166C18.3779 4.89142 18.5 5.16343 18.5 5.44907V23C18.5 23.5523 18.0523 24 17.5 24H1.5C0.947715 24 0.5 23.5523 0.5 23Z" stroke="black"/>
<path d="M13 5.5V1.20711C13 0.761654 13.5386 0.538571 13.8536 0.853554L18.1464 5.14645C18.4614 5.46143 18.2383 6 17.7929 6H13.5C13.2239 6 13 5.77614 13 5.5Z" fill="black"/>
</svg>
