<svg width="19" height="25" viewBox="0 0 19 25" fill="none" xmlns="http://www.w3.org/2000/svg">
<path d="M4.15693 16.295C4.18027 15.9883 4.2986 15.7483 4.51193 15.575C4.72527 15.4017 5.00193 15.315 5.34193 15.315C5.5686 15.315 5.7636 15.3567 5.92693 15.44C6.0936 15.52 6.2186 15.63 6.30193 15.77C6.3886 15.91 6.43193 16.0683 6.43193 16.245C6.43193 16.4517 6.37193 16.63 6.25193 16.78C6.13527 16.93 5.98193 17.0267 5.79193 17.07V17.095C6.0086 17.1483 6.18027 17.2533 6.30693 17.41C6.4336 17.5667 6.49693 17.7717 6.49693 18.025C6.49693 18.215 6.4536 18.3867 6.36693 18.54C6.28027 18.69 6.15027 18.8083 5.97693 18.895C5.8036 18.9817 5.59527 19.025 5.35193 19.025C4.9986 19.025 4.7086 18.9333 4.48193 18.75C4.25527 18.5633 4.1286 18.3 4.10193 17.96H4.54193C4.56527 18.16 4.64693 18.3233 4.78693 18.45C4.92693 18.5767 5.1136 18.64 5.34693 18.64C5.58027 18.64 5.75693 18.58 5.87693 18.46C6.00027 18.3367 6.06193 18.1783 6.06193 17.985C6.06193 17.735 5.9786 17.555 5.81193 17.445C5.64527 17.335 5.3936 17.28 5.05693 17.28H4.94193V16.9H5.06193C5.3686 16.8967 5.60027 16.8467 5.75693 16.75C5.9136 16.65 5.99193 16.4967 5.99193 16.29C5.99193 16.1133 5.9336 15.9717 5.81693 15.865C5.7036 15.7583 5.54027 15.705 5.32693 15.705C5.12027 15.705 4.9536 15.7583 4.82693 15.865C4.70027 15.9717 4.62527 16.115 4.60193 16.295H4.15693ZM8.52127 15.515C8.90127 15.515 9.2296 15.5867 9.50627 15.73C9.78627 15.87 9.9996 16.0717 10.1463 16.335C10.2963 16.5983 10.3713 16.9083 10.3713 17.265C10.3713 17.6217 10.2963 17.9317 10.1463 18.195C9.9996 18.455 9.78627 18.655 9.50627 18.795C9.2296 18.9317 8.90127 19 8.52127 19H7.43627V15.515H8.52127ZM8.52127 18.625C8.97127 18.625 9.3146 18.5067 9.55127 18.27C9.78794 18.03 9.90627 17.695 9.90627 17.265C9.90627 16.8317 9.78627 16.4933 9.54627 16.25C9.3096 16.0067 8.96794 15.885 8.52127 15.885H7.89127V18.625H8.52127ZM14.7564 15.54V19H14.3014V16.42L13.1514 19H12.8314L11.6764 16.415V19H11.2214V15.54H11.7114L12.9914 18.4L14.2714 15.54H14.7564Z" fill="black"/>
<path d="M0.5 23V2C0.5 1.44772 0.947715 1 1.5 1H13.6198C13.8647 1 14.1011 1.08988 14.2842 1.25259L18.1644 4.70166C18.3779 4.89142 18.5 5.16343 18.5 5.44907V23C18.5 23.5523 18.0523 24 17.5 24H1.5C0.947715 24 0.5 23.5523 0.5 23Z" stroke="black"/>
<path d="M13 5.5V1.20711C13 0.761654 13.5386 0.538571 13.8536 0.853554L18.1464 5.14645C18.4614 5.46143 18.2383 6 17.7929 6H13.5C13.2239 6 13 5.77614 13 5.5Z" fill="black"/>
</svg>
