<svg width="13" height="13" viewBox="0 0 13 13" fill="none" xmlns="http://www.w3.org/2000/svg">
<path fill-rule="evenodd" clip-rule="evenodd" d="M0.262619 6.59616C0.262619 3.28283 2.94929 0.596161 6.26262 0.596161C9.57635 0.596161 12.2626 3.28263 12.2626 6.59616C12.2626 9.90969 9.57635 12.5962 6.26262 12.5962C2.94929 12.5962 0.262619 9.90949 0.262619 6.59616ZM11.3625 6.59616C11.3625 3.77967 9.07915 1.49616 6.26249 1.49616C3.44622 1.49616 1.16249 3.77989 1.16249 6.59616C1.16249 9.41243 3.44622 11.6962 6.26249 11.6962C9.07915 11.6962 11.3625 9.41264 11.3625 6.59616ZM6.25955 3.86861C6.48737 3.86861 6.67565 4.03791 6.70545 4.25755L6.70956 4.31861V6.97002C6.70956 7.21854 6.50808 7.42002 6.25955 7.42002C6.03174 7.42002 5.84346 7.25072 5.81366 7.03108L5.80956 6.97002V4.31861C5.80956 4.07009 6.01103 3.86861 6.25955 3.86861ZM6.71556 8.87368C6.71556 8.62515 6.51408 8.42368 6.26555 8.42368L6.19849 8.42779C5.97885 8.45759 5.80956 8.64587 5.80956 8.87368C5.80956 9.12221 6.01103 9.32368 6.25955 9.32368L6.32662 9.31957C6.54626 9.28978 6.71556 9.1015 6.71556 8.87368Z" fill="#8B0000"/>
</svg>
