<svg width="13" height="13" viewBox="0 0 13 13" fill="none" xmlns="http://www.w3.org/2000/svg">
<path d="M6.66422 5.98948L2.86387 7.47883C2.82666 7.49348 2.78758 7.50088 2.74783 7.50088C2.6152 7.50088 2.49407 7.4182 2.44616 7.29493L1.29862 4.34124C1.23398 4.17482 1.31616 3.98662 1.48198 3.92156L8.09295 1.33043C8.17994 1.29642 8.29759 1.2776 8.42446 1.2776C8.57985 1.2776 8.72841 1.30542 8.832 1.35355L10.112 1.95015L10.4215 1.82943C10.4383 1.82284 10.4555 1.81706 10.4729 1.81209L8.94831 1.10176C8.80738 1.03616 8.62161 1 8.42446 1C8.26172 1 8.11235 1.02487 7.99257 1.07179L1.38134 3.66291C1.07364 3.7835 0.920931 4.13315 1.04098 4.4422L2.18852 7.39589C2.27752 7.62482 2.50224 7.77874 2.74783 7.77874C2.82211 7.77874 2.89505 7.7649 2.96438 7.73774L6.51713 6.34532L6.66422 5.98948Z" fill="#9B8971"/>
<mask id="path-2-inside-1_2318_1359" fill="white">
<path d="M6.66422 5.98948L2.86387 7.47883C2.82666 7.49348 2.78758 7.50088 2.74783 7.50088C2.6152 7.50088 2.49407 7.4182 2.44616 7.29493L1.29862 4.34124C1.23398 4.17482 1.31616 3.98662 1.48198 3.92156L8.09295 1.33043C8.17994 1.29642 8.29759 1.2776 8.42446 1.2776C8.57985 1.2776 8.72841 1.30542 8.832 1.35355L10.112 1.95015L10.4215 1.82943C10.4383 1.82284 10.4555 1.81706 10.4729 1.81209L8.94831 1.10176C8.80738 1.03616 8.62161 1 8.42446 1C8.26172 1 8.11235 1.02487 7.99257 1.07179L1.38134 3.66291C1.07364 3.7835 0.920931 4.13315 1.04098 4.4422L2.18852 7.39589C2.27752 7.62482 2.50224 7.77874 2.74783 7.77874C2.82211 7.77874 2.89505 7.7649 2.96438 7.73774L6.51713 6.34532L6.66422 5.98948Z"/>
</mask>
<path d="M6.66422 5.98948L2.86387 7.47883C2.82666 7.49348 2.78758 7.50088 2.74783 7.50088C2.6152 7.50088 2.49407 7.4182 2.44616 7.29493L1.29862 4.34124C1.23398 4.17482 1.31616 3.98662 1.48198 3.92156L8.09295 1.33043C8.17994 1.29642 8.29759 1.2776 8.42446 1.2776C8.57985 1.2776 8.72841 1.30542 8.832 1.35355L10.112 1.95015L10.4215 1.82943C10.4383 1.82284 10.4555 1.81706 10.4729 1.81209L8.94831 1.10176C8.80738 1.03616 8.62161 1 8.42446 1C8.26172 1 8.11235 1.02487 7.99257 1.07179L1.38134 3.66291C1.07364 3.7835 0.920931 4.13315 1.04098 4.4422L2.18852 7.39589C2.27752 7.62482 2.50224 7.77874 2.74783 7.77874C2.82211 7.77874 2.89505 7.7649 2.96438 7.73774L6.51713 6.34532L6.66422 5.98948Z" fill="#9B8971"/>
<path d="M6.66422 5.98948L9.43669 7.13552L12.1273 0.626361L5.56959 3.19632L6.66422 5.98948ZM2.86387 7.47883L1.76923 4.68566L1.76459 4.68749L2.86387 7.47883ZM2.44616 7.29493L-0.350216 8.38135L-0.350047 8.38178L2.44616 7.29493ZM1.29862 4.34124L-1.49782 5.42747L-1.49775 5.42766L1.29862 4.34124ZM1.48198 3.92156L0.387235 1.12843L0.386224 1.12883L1.48198 3.92156ZM8.09295 1.33043L7.00061 -1.46364L6.9982 -1.46269L8.09295 1.33043ZM8.832 1.35355L10.0994 -1.36561L10.096 -1.36718L8.832 1.35355ZM10.112 1.95015L8.84469 4.66931L10.0074 5.2112L11.2024 4.74499L10.112 1.95015ZM10.4215 1.82943L11.5118 4.62428L11.513 4.62382L10.4215 1.82943ZM10.4729 1.81209L11.2974 4.69654L19.0255 2.48731L11.7399 -0.907236L10.4729 1.81209ZM8.94831 1.10176L10.2153 -1.61756L10.2143 -1.61802L8.94831 1.10176ZM7.99257 1.07179L6.89849 -1.7216L6.89786 -1.72135L7.99257 1.07179ZM1.38134 3.66291L2.47596 6.45609L2.47605 6.45605L1.38134 3.66291ZM1.04098 4.4422L-1.75544 5.52849L-1.75539 5.52862L1.04098 4.4422ZM2.18852 7.39589L-0.607855 8.4823L-0.607608 8.48294L2.18852 7.39589ZM2.96438 7.73774L4.05849 10.5311L4.05909 10.5309L2.96438 7.73774ZM6.51713 6.34532L7.61184 9.13846L8.80148 8.6722L9.2896 7.49135L6.51713 6.34532ZM5.56959 3.19632L1.76924 4.68566L3.9585 10.272L7.75885 8.78265L5.56959 3.19632ZM1.76459 4.68749C2.07756 4.56423 2.4114 4.50088 2.74783 4.50088V10.5009C3.16376 10.5009 3.57576 10.4227 3.96315 10.2702L1.76459 4.68749ZM2.74783 4.50088C3.84751 4.50088 4.84012 5.17321 5.24236 6.20808L-0.350047 8.38178C0.148021 9.66319 1.38288 10.5009 2.74783 10.5009V4.50088ZM5.24253 6.20851L4.095 3.25483L-1.49775 5.42766L-0.350216 8.38135L5.24253 6.20851ZM4.09507 3.25502C4.6261 4.62213 3.95774 6.17282 2.57774 6.71428L0.386224 1.12883C-1.32542 1.80042 -2.15814 3.72752 -1.49782 5.42747L4.09507 3.25502ZM2.57673 6.71468L9.18769 4.12355L6.9982 -1.46269L0.387235 1.12843L2.57673 6.71468ZM9.18528 4.12449C8.98742 4.20185 8.82328 4.23674 8.71634 4.2538C8.6034 4.27182 8.50579 4.2776 8.42446 4.2776V-1.7224C8.04695 -1.7224 7.53445 -1.67234 7.00061 -1.46364L9.18528 4.12449ZM8.42446 4.2776C8.32822 4.2776 8.2195 4.26942 8.0973 4.24661C7.98462 4.22558 7.79615 4.18026 7.56802 4.07428L10.096 -1.36718C9.48313 -1.65189 8.87144 -1.7224 8.42446 -1.7224V4.2776ZM7.56466 4.07271L8.84469 4.66931L11.3794 -0.769013L10.0993 -1.36561L7.56466 4.07271ZM11.2024 4.74499L11.5118 4.62428L9.33114 -0.965417L9.0217 -0.844699L11.2024 4.74499ZM11.513 4.62382C11.4424 4.65141 11.3704 4.67568 11.2974 4.69654L9.64828 -1.07236C9.54052 -1.04156 9.43432 -1.00572 9.32997 -0.964961L11.513 4.62382ZM11.7399 -0.907236L10.2153 -1.61756L7.68131 3.82109L9.20587 4.53141L11.7399 -0.907236ZM10.2143 -1.61802C9.58645 -1.91028 8.9469 -2 8.42446 -2V4C8.34313 4 8.24659 3.99284 8.13508 3.97117C8.02779 3.95032 7.86989 3.90887 7.6823 3.82154L10.2143 -1.61802ZM8.42446 -2C7.98152 -2 7.44498 -1.93564 6.89849 -1.7216L9.08664 3.86517C8.92428 3.92876 8.78588 3.96081 8.6845 3.97766C8.581 3.99487 8.49366 4 8.42446 4V-2ZM6.89786 -1.72135L0.286627 0.869777L2.47605 6.45605L9.08728 3.86492L6.89786 -1.72135ZM0.286715 0.869743C-1.56883 1.59692 -2.47086 3.68677 -1.75544 5.52849L3.83741 3.35592C4.31273 4.57953 3.71611 5.97008 2.47596 6.45609L0.286715 0.869743ZM-1.75539 5.52862L-0.607855 8.4823L4.98489 6.30947L3.83736 3.35579L-1.75539 5.52862ZM-0.607608 8.48294C-0.070847 9.8636 1.26323 10.7787 2.74783 10.7787V4.77874C3.74124 4.77874 4.62589 5.38604 4.98464 6.30883L-0.607608 8.48294ZM2.74783 10.7787C3.19888 10.7787 3.64276 10.6939 4.05849 10.5311L1.87027 4.94437C2.14734 4.83585 2.44534 4.77874 2.74783 4.77874V10.7787ZM4.05909 10.5309L7.61184 9.13846L5.42242 3.55218L1.86967 4.9446L4.05909 10.5309ZM9.2896 7.49135L9.43669 7.13552L3.89175 4.84345L3.74466 5.19928L9.2896 7.49135Z" fill="#9B8971" mask="url(#path-2-inside-1_2318_1359)"/>
<path d="M6.75527 5.9001L6.71043 6.00859L6.56334 6.36442L6.5552 6.3841L6.53537 6.39187L2.98263 7.78429L2.98262 7.7843C2.90751 7.81371 2.82839 7.82874 2.74783 7.82874C2.48159 7.82874 2.23838 7.66213 2.14192 7.414L2.14191 7.41399L0.994378 4.46031L0.994377 4.46031C0.864401 4.12571 1.0296 3.74705 1.36309 3.61636L7.97432 1.02523L7.97433 1.02523C8.10123 0.975528 8.25705 0.95 8.42446 0.95C8.62703 0.95 8.82036 0.987054 8.96941 1.05643L8.96943 1.05644L10.494 1.76677L10.6154 1.82334L10.4866 1.86016C10.4707 1.86471 10.4551 1.86999 10.4397 1.876L10.4396 1.87601L10.1302 1.99673L10.1103 2.0045L10.0909 1.99547L8.81094 1.3989L6.75527 5.9001ZM6.75527 5.9001L6.64597 5.94293M6.75527 5.9001L6.64597 5.94293M6.64597 5.94293L2.84562 7.43228L2.84555 7.43231M6.64597 5.94293L2.84555 7.43231M2.84555 7.43231C2.81418 7.44466 2.78131 7.45088 2.74783 7.45088C2.63574 7.45088 2.53318 7.38079 2.49276 7.27682C2.49276 7.27682 2.49276 7.27682 2.49276 7.27682L1.34523 4.32314M2.84555 7.43231L1.34523 4.32314M1.34523 4.32314C1.34523 4.32314 1.34523 4.32314 1.34523 4.32314L1.34523 4.32314Z" fill="#9B8971" stroke="#9B8971" stroke-width="0.1"/>
<mask id="path-5-inside-2_2318_1359" fill="white">
<path d="M8.64408 12C8.56538 12 8.48855 11.9847 8.41561 11.9542L5.5002 10.7388C5.35298 10.6774 5.23801 10.5615 5.17685 10.4127C5.11555 10.2639 5.11555 10.1003 5.17672 9.95228L7.89726 3.369C8.00888 3.09852 8.30921 2.80372 8.58104 2.69752L10.3486 2.00709C10.4186 1.97967 10.4928 1.96582 10.5688 1.96582C10.8173 1.96582 11.0419 2.11127 11.1406 2.33631L11.9087 4.08564C12.0263 4.35356 12.031 4.7754 11.9192 5.04587L9.19857 11.6293C9.10542 11.8545 8.88793 12 8.64408 12ZM10.5688 2.24369C10.5272 2.24369 10.487 2.25121 10.4489 2.26614L8.68128 2.95657C8.48186 3.03453 8.2348 3.27705 8.15275 3.4756L5.43195 10.0589C5.39916 10.1383 5.39929 10.2264 5.43235 10.3068C5.46541 10.387 5.52711 10.4494 5.6062 10.4825L8.52161 11.6978C8.56069 11.7141 8.60192 11.7226 8.64394 11.7226C8.77551 11.7226 8.89302 11.6441 8.94307 11.523L11.6639 4.93953C11.7458 4.74098 11.742 4.39442 11.6556 4.19775L10.8876 2.44842C10.8338 2.32596 10.7057 2.24369 10.5688 2.24369Z"/>
</mask>
<path d="M8.64408 12C8.56538 12 8.48855 11.9847 8.41561 11.9542L5.5002 10.7388C5.35298 10.6774 5.23801 10.5615 5.17685 10.4127C5.11555 10.2639 5.11555 10.1003 5.17672 9.95228L7.89726 3.369C8.00888 3.09852 8.30921 2.80372 8.58104 2.69752L10.3486 2.00709C10.4186 1.97967 10.4928 1.96582 10.5688 1.96582C10.8173 1.96582 11.0419 2.11127 11.1406 2.33631L11.9087 4.08564C12.0263 4.35356 12.031 4.7754 11.9192 5.04587L9.19857 11.6293C9.10542 11.8545 8.88793 12 8.64408 12ZM10.5688 2.24369C10.5272 2.24369 10.487 2.25121 10.4489 2.26614L8.68128 2.95657C8.48186 3.03453 8.2348 3.27705 8.15275 3.4756L5.43195 10.0589C5.39916 10.1383 5.39929 10.2264 5.43235 10.3068C5.46541 10.387 5.52711 10.4494 5.6062 10.4825L8.52161 11.6978C8.56069 11.7141 8.60192 11.7226 8.64394 11.7226C8.77551 11.7226 8.89302 11.6441 8.94307 11.523L11.6639 4.93953C11.7458 4.74098 11.742 4.39442 11.6556 4.19775L10.8876 2.44842C10.8338 2.32596 10.7057 2.24369 10.5688 2.24369Z" fill="#9B8971"/>
<path d="M8.41561 11.9542L10.3453 7.34158L10.3395 7.33917L8.41561 11.9542ZM5.5002 10.7388L3.57468 15.3532L3.57629 15.3539L5.5002 10.7388ZM5.17685 10.4127L9.80146 8.51192L9.8 8.50836L5.17685 10.4127ZM5.17672 9.95228L9.79768 11.8619L9.79769 11.8619L5.17672 9.95228ZM7.89726 3.369L12.5182 5.27861L12.5191 5.27641L7.89726 3.369ZM8.58104 2.69752L6.76188 -1.9598L6.76153 -1.95967L8.58104 2.69752ZM10.3486 2.00709L12.1678 6.66442L12.1726 6.66255L10.3486 2.00709ZM11.1406 2.33631L6.56118 4.34358L6.56245 4.34648L11.1406 2.33631ZM11.9087 4.08564L7.33055 6.09581L7.33059 6.0959L11.9087 4.08564ZM11.9192 5.04587L16.5402 6.95553L16.5403 6.95523L11.9192 5.04587ZM9.19857 11.6293L13.8188 13.5407L13.8195 13.5389L9.19857 11.6293ZM10.4489 2.26614L12.268 6.92346L12.2704 6.92253L10.4489 2.26614ZM8.68128 2.95657L6.86213 -1.70076L6.8606 -1.70016L8.68128 2.95657ZM8.15275 3.4756L12.7737 5.38537L12.7738 5.38504L8.15275 3.4756ZM5.43195 10.0589L0.811041 8.1491L0.810128 8.15132L5.43195 10.0589ZM5.43235 10.3068L0.808084 12.2084L0.809206 12.2111L5.43235 10.3068ZM5.6062 10.4825L3.67757 15.0955L3.68229 15.0975L5.6062 10.4825ZM8.52161 11.6978L6.59769 16.3129L6.60032 16.314L8.52161 11.6978ZM8.94307 11.523L4.32215 9.61321L4.32213 9.61325L8.94307 11.523ZM11.6639 4.93953L16.2848 6.84928L16.286 6.84632L11.6639 4.93953ZM11.6556 4.19775L7.07733 6.20763L7.07836 6.20998L11.6556 4.19775ZM10.8876 2.44842L15.4659 0.438542L15.4653 0.437283L10.8876 2.44842ZM8.64408 7.00004C9.22539 7.00004 9.80471 7.11542 10.3453 7.34158L6.48591 16.5668C7.1724 16.854 7.90537 17 8.64408 17V7.00004ZM10.3395 7.33917L7.42412 6.12379L3.57629 15.3539L6.49169 16.5692L10.3395 7.33917ZM7.42572 6.12446C8.51249 6.57795 9.36257 7.44409 9.80146 8.51192L0.552237 12.3135C1.11346 13.6789 2.19347 14.7768 3.57468 15.3532L7.42572 6.12446ZM9.8 8.50836C10.2398 9.57597 10.2433 10.7836 9.79768 11.8619L0.555751 8.04265C-0.012201 9.41699 -0.00865721 10.9518 0.5537 12.317L9.8 8.50836ZM9.79769 11.8619L12.5182 5.27861L3.27628 1.45938L0.555745 8.04266L9.79769 11.8619ZM12.5191 5.27641C12.2516 5.92479 11.8986 6.32683 11.6821 6.53937C11.4661 6.75153 11.0565 7.09844 10.4005 7.35471L6.76153 -1.95967C5.83376 -1.5972 5.13812 -1.04979 4.67602 -0.596063C4.21352 -0.141949 3.65458 0.542726 3.27537 1.46159L12.5191 5.27641ZM10.4002 7.35484L12.1678 6.66441L8.52949 -2.65023L6.76188 -1.9598L10.4002 7.35484ZM12.1726 6.66255C11.6515 6.86668 11.1062 6.96582 10.5688 6.96582V-3.03418C9.87936 -3.03418 9.18576 -2.90735 8.52473 -2.64837L12.1726 6.66255ZM10.5688 6.96582C8.86372 6.96582 7.27213 5.96554 6.56118 4.34358L15.72 0.329032C14.8117 -1.74299 12.771 -3.03418 10.5688 -3.03418V6.96582ZM6.56245 4.34648L7.33055 6.09581L16.4868 2.07547L15.7187 0.326136L6.56245 4.34648ZM7.33059 6.0959C7.04856 5.45364 7.00361 4.92125 7.00029 4.62C6.99696 4.31878 7.03013 3.78521 7.29817 3.1365L16.5403 6.95523C16.9201 6.03605 17.0068 5.15633 16.9997 4.5096C16.9925 3.86283 16.8864 2.98556 16.4868 2.07538L7.33059 6.0959ZM7.29829 3.13621L4.57762 9.71962L13.8195 13.5389L16.5402 6.95553L7.29829 3.13621ZM4.57833 9.71791C5.2578 8.07546 6.86282 7.00004 8.64408 7.00004V17C10.913 17 12.953 15.6334 13.8188 13.5407L4.57833 9.71791ZM10.5688 -2.75631C9.91281 -2.75631 9.2542 -2.63547 8.62734 -2.39025L12.2704 6.92253C11.7199 7.1379 11.1416 7.24369 10.5688 7.24369V-2.75631ZM8.62973 -2.39119L6.86213 -1.70076L10.5004 7.61389L12.268 6.92346L8.62973 -2.39119ZM6.8606 -1.70016C5.91901 -1.33202 5.25246 -0.772439 4.86994 -0.396843C4.48673 -0.0205773 3.91673 0.634383 3.53171 1.56615L12.7738 5.38504C12.6045 5.7947 12.4114 6.08998 12.2823 6.26706C12.144 6.45677 12.0053 6.61172 11.8761 6.73857C11.7469 6.86539 11.5892 7.00149 11.3966 7.13657C11.2169 7.26254 10.9169 7.45108 10.502 7.61329L6.8606 -1.70016ZM3.53185 1.56582L0.811042 8.1491L10.0529 11.9687L12.7737 5.38537L3.53185 1.56582ZM0.810128 8.15132C0.267806 9.4653 0.27935 10.9227 0.808085 12.2084L10.0566 8.40514C10.5192 9.53011 10.5305 10.8114 10.0538 11.9664L0.810128 8.15132ZM0.809206 12.2111C1.33904 13.4974 2.35931 14.5444 3.67757 15.0955L7.53484 5.8694C8.6949 6.3544 9.59177 7.27666 10.0555 8.40242L0.809206 12.2111ZM3.68229 15.0975L6.5977 16.3129L10.4455 7.08281L7.53012 5.86743L3.68229 15.0975ZM6.60032 16.314C7.22872 16.5755 7.9216 16.7226 8.64394 16.7226V6.72258C9.28223 6.72258 9.89267 6.8527 10.4429 7.08172L6.60032 16.314ZM8.64394 16.7226C10.7927 16.7226 12.7385 15.4302 13.564 13.4326L4.32213 9.61325C5.04757 7.85791 6.75836 6.72258 8.64394 6.72258V16.7226ZM13.564 13.4327L16.2848 6.84928L7.04296 3.02979L4.32215 9.61321L13.564 13.4327ZM16.286 6.84632C16.6702 5.91511 16.7285 5.04942 16.7226 4.5126C16.7166 3.97619 16.6393 3.11009 16.2328 2.18552L7.07836 6.20998C6.89954 5.80322 6.82019 5.45866 6.78187 5.24279C6.74079 5.01144 6.72518 4.80403 6.72317 4.62328C6.72117 4.4425 6.7322 4.23512 6.76802 4.00348C6.80144 3.78734 6.87283 3.44219 7.04174 3.03275L16.286 6.84632ZM16.2338 2.18787L15.4659 0.438542L6.30936 4.4583L7.07733 6.20763L16.2338 2.18787ZM15.4653 0.437283C14.5897 -1.55587 12.6292 -2.75631 10.5688 -2.75631V7.24369C8.78229 7.24369 7.07797 6.20779 6.30992 4.45956L15.4653 0.437283Z" fill="#9B8971" mask="url(#path-5-inside-2_2318_1359)"/>
<path d="M5.48096 10.785L5.48095 10.785C5.32139 10.7184 5.19677 10.5927 5.1306 10.4317M5.48096 10.785L5.1306 10.4317M5.48096 10.785L8.39632 12.0003C8.47539 12.0334 8.55878 12.05 8.64408 12.05C8.90818 12.05 9.14389 11.8922 9.24477 11.6484L9.24478 11.6484M5.48096 10.785L9.24478 11.6484M5.1306 10.4317C5.06431 10.2707 5.06428 10.0934 5.13051 9.93318L7.85104 3.34992C7.85104 3.34991 7.85104 3.34991 7.85105 3.3499C7.91009 3.20683 8.01764 3.06009 8.14404 2.93598C8.27044 2.81186 8.41901 2.70714 8.56284 2.65095M5.1306 10.4317L8.56284 2.65095M8.56284 2.65095L8.56285 2.65095L10.3304 1.96054L10.3305 1.96052L8.56284 2.65095ZM11.9545 4.06554L11.1864 2.31624L11.9545 4.06554ZM11.9545 4.06554C12.0167 4.20726 12.048 4.38674 12.05 4.56424M11.9545 4.06554L12.05 4.56424M9.24478 11.6484L11.9655 5.06497L11.9192 5.04587M9.24478 11.6484L11.9192 5.04587M11.9192 5.04587L11.9655 5.06496M11.9192 5.04587L11.9655 5.06496M10.4671 2.3127L10.4671 2.31271L8.69949 3.00313C8.69948 3.00314 8.69948 3.00314 8.69947 3.00314C8.60819 3.03883 8.50212 3.11416 8.40803 3.20654C8.31395 3.29892 8.23655 3.40374 8.19896 3.49469L8.19896 3.4947L5.47816 10.078C5.45047 10.145 5.45049 10.2194 5.47858 10.2877C5.50666 10.3559 5.55876 10.4084 5.62544 10.4363L10.4671 2.3127ZM10.4671 2.3127C10.4994 2.30008 10.5333 2.29369 10.5688 2.29369C10.6865 2.29369 10.7963 2.36478 10.8418 2.46853L11.6098 4.21785L11.6098 4.21788C11.6494 4.30795 11.6714 4.43645 11.6729 4.56849C11.6743 4.70053 11.6552 4.82951 11.6177 4.92047L8.89686 11.5039C8.85456 11.6062 8.75533 11.6726 8.64394 11.6726C8.60872 11.6726 8.57401 11.6655 8.54083 11.6517L5.62549 10.4363L10.4671 2.3127ZM11.9655 5.06496C12.0246 4.92189 12.0519 4.74174 12.05 4.56424M11.9655 5.06496L12.05 4.56424" fill="#9B8971" stroke="#9B8971" stroke-width="0.1"/>
</svg>
