<svg width="11" height="11" viewBox="0 0 11 11" fill="none" xmlns="http://www.w3.org/2000/svg">
<path d="M1.5224 4.05469C1.35872 4.28681 1.27106 4.56399 1.27149 4.84801C1.27149 5.03036 1.3074 5.21092 1.37718 5.37939C1.44696 5.54785 1.54924 5.70092 1.67818 5.82986C1.93858 6.09026 2.29176 6.23656 2.66003 6.23656C2.94406 6.23698 3.22123 6.14932 3.45335 5.98564" stroke="#212121" stroke-width="0.5" stroke-miterlimit="10" stroke-linecap="round" stroke-linejoin="round"/>
<path d="M8.91548 5.52369L5.58398 1.92383" stroke="#212121" stroke-width="0.5" stroke-miterlimit="10" stroke-linecap="round" stroke-linejoin="round"/>
<path d="M5.41797 10.1631L8.91594 6.51172" stroke="#212121" stroke-width="0.5" stroke-miterlimit="10" stroke-linecap="round" stroke-linejoin="round"/>
<path d="M9.34575 6.67197C9.70713 6.67197 10.0001 6.37901 10.0001 6.01762C10.0001 5.65624 9.70713 5.36328 9.34575 5.36328C8.98437 5.36328 8.69141 5.65624 8.69141 6.01762C8.69141 6.37901 8.98437 6.67197 9.34575 6.67197Z" stroke="#212121" stroke-width="0.5" stroke-miterlimit="10" stroke-linecap="round" stroke-linejoin="round"/>
<path d="M3.01758 10.1641H7.81769" stroke="#212121" stroke-width="0.5" stroke-miterlimit="10" stroke-linecap="round" stroke-linejoin="round"/>
<path d="M5.58398 1.92424L6.50822 1" stroke="#212121" stroke-width="0.5" stroke-miterlimit="10" stroke-linecap="round" stroke-linejoin="round"/>
<path d="M3.27394 1C2.42214 0.999081 1.60461 1.33537 1 1.93537L5.57363 6.509C6.02257 6.0553 6.32722 5.47891 6.44923 4.8524C6.57124 4.2259 6.50514 3.57731 6.25926 2.9883C6.01338 2.39928 5.59872 1.8962 5.06749 1.54238C4.53626 1.18857 3.91221 0.999855 3.27394 1Z" stroke="#212121" stroke-width="0.5" stroke-miterlimit="10" stroke-linecap="round" stroke-linejoin="round"/>
</svg>
