<svg width="12" height="10" viewBox="0 0 12 10" fill="none" xmlns="http://www.w3.org/2000/svg">
<path d="M10.9015 7.93914L8.05288 4.06447C7.78621 3.70247 7.24488 3.70247 6.97888 4.06447L4.76621 7.0738L3.80354 5.76447C3.53688 5.4018 2.99554 5.4018 2.72954 5.76447L1.13088 7.93914C0.806877 8.37914 1.12154 9.00047 1.66821 9.00047H10.3642C10.9109 9.00047 11.2249 8.37914 10.9015 7.93914Z" fill="#A89378" fill-opacity="0.83"/>
<path d="M10.9015 7.93914L8.05288 4.06447C7.78621 3.70247 7.24488 3.70247 6.97888 4.06447L4.76621 7.0738L3.80354 5.76447C3.53688 5.4018 2.99554 5.4018 2.72954 5.76447L1.13088 7.93914C0.806877 8.37914 1.12154 9.00047 1.66821 9.00047H10.3642C10.9109 9.00047 11.2249 8.37914 10.9015 7.93914Z" stroke="#111111" stroke-width="0.5" stroke-linecap="round" stroke-linejoin="round"/>
<path d="M3.68229 3.33333C4.32662 3.33333 4.84896 2.811 4.84896 2.16667C4.84896 1.52233 4.32662 1 3.68229 1C3.03796 1 2.51562 1.52233 2.51562 2.16667C2.51562 2.811 3.03796 3.33333 3.68229 3.33333Z" stroke="#111111" stroke-width="0.5" stroke-linecap="round" stroke-linejoin="round"/>
</svg>
