<svg width="16" height="14" viewBox="0 0 16 14" fill="none" xmlns="http://www.w3.org/2000/svg">
<path d="M11.0159 3.08784L11.0768 3.25H11.25H13.5C14.4669 3.25 15.25 4.03307 15.25 5V11.5C15.25 12.4669 14.4669 13.25 13.5 13.25H3C2.03307 13.25 1.25 12.4669 1.25 11.5V5C1.25 4.03307 2.03307 3.25 3 3.25H5.25H5.4232L5.48406 3.08784L5.99106 1.73684L5.99113 1.73665C6.1006 1.44423 6.38033 1.25 6.693 1.25H9.807C10.1197 1.25 10.3994 1.44423 10.5089 1.73665L10.5089 1.73684L11.0159 3.08784ZM8.25 11.25C9.90687 11.25 11.25 9.90687 11.25 8.25C11.25 6.59315 9.90687 5.25 8.25 5.25C6.59315 5.25 5.25 6.59315 5.25 8.25C5.25 9.90687 6.59315 11.25 8.25 11.25Z" fill="#A89378" fill-opacity="0.72" stroke="#111111" stroke-width="0.5"/>
<path d="M13.5 3H11.25L10.743 1.649C10.597 1.259 10.224 1 9.807 1H6.693C6.276 1 5.903 1.259 5.757 1.649L5.25 3H3C1.895 3 1 3.895 1 5V11.5C1 12.605 1.895 13.5 3 13.5H13.5C14.605 13.5 15.5 12.605 15.5 11.5V5C15.5 3.895 14.605 3 13.5 3Z" stroke="#111111" stroke-width="0.5" stroke-linecap="round" stroke-linejoin="round"/>
<path d="M9 11C10.5188 11 11.75 9.7688 11.75 8.25C11.75 6.73122 10.5188 5.5 9 5.5C7.48122 5.5 6.25 6.73122 6.25 8.25C6.25 9.7688 7.48122 11 9 11Z" stroke="#111111" stroke-width="0.5" stroke-linecap="round" stroke-linejoin="round"/>
<path d="M4.75 5.5C4.75 5.77614 4.52614 6 4.25 6C3.97386 6 3.75 5.77614 3.75 5.5C3.75 5.22386 3.97386 5 4.25 5C4.52614 5 4.75 5.22386 4.75 5.5Z" fill="#212121" stroke="#111111" stroke-width="0.5"/>
</svg>
