<svg width="20" height="21" viewBox="0 0 20 21" fill="none" xmlns="http://www.w3.org/2000/svg">
<path d="M17.4788 0.538762C18.9083 0.125188 20.2281 1.40611 19.9134 2.82587L19.8773 2.96845L15.1849 18.7653C14.7191 20.3319 12.6766 20.6446 11.7542 19.3522L11.6653 19.2175L7.73077 12.6989L1.18975 8.67255C-0.200268 7.81654 0.0277303 5.74971 1.51202 5.19111L1.66436 5.14032L17.4788 0.538762ZM17.9007 1.99384L2.08722 6.5954C1.75813 6.69098 1.67716 7.11386 1.91729 7.33271L1.98468 7.38251L8.17022 11.1901L13.4681 5.85712C13.7361 5.58729 14.1571 5.56189 14.4544 5.78095L14.5394 5.85419C14.809 6.12213 14.8353 6.54228 14.6165 6.83954L14.5433 6.92548L9.23761 12.2643L12.9632 18.4352C13.1404 18.7288 13.5546 18.6997 13.7015 18.4118L13.7327 18.3337L18.4251 2.53681C18.5159 2.23228 18.2665 1.94814 17.9749 1.97919L17.9007 1.99384Z" fill="#ACA9A9"/>
</svg>
