<svg width="13" height="11" viewBox="0 0 13 11" fill="none" xmlns="http://www.w3.org/2000/svg">
<path d="M4.16379 8.7359C4.15684 8.73731 4.1499 8.7388 4.14296 8.74036L4.14337 8.74027L4.16379 8.7359ZM4.16379 8.7359V1.28166V8.7359Z" fill="#A89378" fill-opacity="0.8" stroke="#111111" stroke-width="0.5"/>
<path d="M4.41406 1.00195V8.96747" stroke="#111111" stroke-width="0.5" stroke-linecap="round" stroke-linejoin="round"/>
<path d="M8.58594 2.45508V10.4206" stroke="#111111" stroke-width="0.5" stroke-linecap="round" stroke-linejoin="round"/>
<path d="M1.594 1.59687L4.19759 1.01805C4.33869 0.986942 4.48586 0.996046 4.62166 1.04536L8.37834 2.41163C8.51414 2.46094 8.66131 2.4708 8.80241 2.43894L11.0768 1.9337C11.5509 1.82825 12 2.1886 12 2.67411V9.08598C12 9.44177 11.7527 9.74977 11.406 9.82639L8.80241 10.4052C8.66131 10.4363 8.51414 10.4272 8.37834 10.3779L4.62166 9.01163C4.48586 8.96232 4.33869 8.95246 4.19759 8.98432L1.92324 9.48956C1.4491 9.59501 1 9.23467 1 8.74915V2.33729C1 1.98149 1.24731 1.67349 1.594 1.59687Z" stroke="#111111" stroke-width="0.5" stroke-linecap="round" stroke-linejoin="round"/>
</svg>
