<svg width="22" height="29" viewBox="0 0 22 29" fill="none" xmlns="http://www.w3.org/2000/svg">
<path d="M7.05852 4.76C6.85185 4.76 6.67852 4.69 6.53852 4.55C6.39852 4.41 6.32852 4.23667 6.32852 4.03C6.32852 3.82333 6.39852 3.65 6.53852 3.51C6.67852 3.37 6.85185 3.3 7.05852 3.3C7.25852 3.3 7.42852 3.37 7.56852 3.51C7.70852 3.65 7.77852 3.82333 7.77852 4.03C7.77852 4.23667 7.70852 4.41 7.56852 4.55C7.42852 4.69 7.25852 4.76 7.05852 4.76ZM7.61852 5.49V11H6.47852V5.49H7.61852ZM11.8952 5.4C12.3286 5.4 12.7152 5.49 13.0552 5.67C13.4019 5.85 13.6719 6.11667 13.8652 6.47C14.0586 6.82333 14.1552 7.25 14.1552 7.75V11H13.0252V7.92C13.0252 7.42667 12.9019 7.05 12.6552 6.79C12.4086 6.52333 12.0719 6.39 11.6452 6.39C11.2186 6.39 10.8786 6.52333 10.6252 6.79C10.3786 7.05 10.2552 7.42667 10.2552 7.92V11H9.11523V5.49H10.2552V6.12C10.4419 5.89333 10.6786 5.71667 10.9652 5.59C11.2586 5.46333 11.5686 5.4 11.8952 5.4ZM16.0694 11.07C15.8627 11.07 15.6894 11 15.5494 10.86C15.4094 10.72 15.3394 10.5467 15.3394 10.34C15.3394 10.1333 15.4094 9.96 15.5494 9.82C15.6894 9.68 15.8627 9.61 16.0694 9.61C16.2694 9.61 16.4394 9.68 16.5794 9.82C16.7194 9.96 16.7894 10.1333 16.7894 10.34C16.7894 10.5467 16.7194 10.72 16.5794 10.86C16.4394 11 16.2694 11.07 16.0694 11.07Z" fill="#111111"/>
<path d="M18.4696 14.8869L3.43943 14.8869C3.15758 14.8869 2.93045 15.114 2.93523 15.391L3.01906 20.2528C3.02372 20.5232 3.24809 20.7401 3.52327 20.7401L18.4696 20.7401C18.7481 20.7401 18.9739 20.5181 18.9739 20.2444L18.9739 15.3826C18.9739 15.1088 18.7481 14.8869 18.4696 14.8869Z" stroke="#111111"/>
<path d="M4.99528 14.937V16.7227M7.1652 14.8874V18.558" stroke="#111111"/>
<path d="M8.88168 14.986L8.88168 16.7717M10.9507 14.9364L10.9507 18.607" stroke="#111111"/>
<path d="M13.1195 14.9869V16.7726M15.1885 14.9372V18.6079M17.2575 14.9869V16.7726" stroke="#111111"/>
</svg>
