<svg width="29" height="29" viewBox="0 0 29 29" fill="none" xmlns="http://www.w3.org/2000/svg">
<path d="M10.3233 5.4C10.7567 5.4 11.1433 5.49 11.4833 5.67C11.83 5.85 12.1 6.11667 12.2933 6.47C12.4933 6.82333 12.5933 7.25 12.5933 7.75V11H11.4633V7.92C11.4633 7.42667 11.34 7.05 11.0933 6.79C10.8467 6.52333 10.51 6.39 10.0833 6.39C9.65665 6.39 9.31665 6.52333 9.06332 6.79C8.81665 7.05 8.69332 7.42667 8.69332 7.92V11H7.56332V7.92C7.56332 7.42667 7.43999 7.05 7.19332 6.79C6.94665 6.52333 6.60999 6.39 6.18332 6.39C5.75665 6.39 5.41665 6.52333 5.16332 6.79C4.91665 7.05 4.79332 7.42667 4.79332 7.92V11H3.65332V5.49H4.79332V6.12C4.97999 5.89333 5.21665 5.71667 5.50332 5.59C5.78999 5.46333 6.09665 5.4 6.42332 5.4C6.86332 5.4 7.25665 5.49333 7.60332 5.68C7.94999 5.86667 8.21665 6.13667 8.40332 6.49C8.56999 6.15667 8.82999 5.89333 9.18332 5.7C9.53665 5.5 9.91665 5.4 10.3233 5.4ZM20.7139 5.4C21.1473 5.4 21.5339 5.49 21.8739 5.67C22.2206 5.85 22.4906 6.11667 22.6839 6.47C22.8839 6.82333 22.9839 7.25 22.9839 7.75V11H21.8539V7.92C21.8539 7.42667 21.7306 7.05 21.4839 6.79C21.2373 6.52333 20.9006 6.39 20.4739 6.39C20.0473 6.39 19.7073 6.52333 19.4539 6.79C19.2073 7.05 19.0839 7.42667 19.0839 7.92V11H17.9539V7.92C17.9539 7.42667 17.8306 7.05 17.5839 6.79C17.3373 6.52333 17.0006 6.39 16.5739 6.39C16.1473 6.39 15.8073 6.52333 15.5539 6.79C15.3073 7.05 15.1839 7.42667 15.1839 7.92V11H14.0439V5.49H15.1839V6.12C15.3706 5.89333 15.6073 5.71667 15.8939 5.59C16.1806 5.46333 16.4873 5.4 16.8139 5.4C17.2539 5.4 17.6473 5.49333 17.9939 5.68C18.3406 5.86667 18.6073 6.13667 18.7939 6.49C18.9606 6.15667 19.2206 5.89333 19.5739 5.7C19.9273 5.5 20.3073 5.4 20.7139 5.4ZM24.8946 11.07C24.6879 11.07 24.5146 11 24.3746 10.86C24.2346 10.72 24.1646 10.5467 24.1646 10.34C24.1646 10.1333 24.2346 9.96 24.3746 9.82C24.5146 9.68 24.6879 9.61 24.8946 9.61C25.0946 9.61 25.2646 9.68 25.4046 9.82C25.5446 9.96 25.6146 10.1333 25.6146 10.34C25.6146 10.5467 25.5446 10.72 25.4046 10.86C25.2646 11 25.0946 11.07 24.8946 11.07Z" fill="#111111"/>
<path d="M21.4696 14.8869L6.43943 14.8869C6.15758 14.8869 5.93045 15.114 5.93523 15.391L6.01906 20.2528C6.02372 20.5232 6.24809 20.7401 6.52327 20.7401L21.4696 20.7401C21.7481 20.7401 21.9739 20.5181 21.9739 20.2444L21.9739 15.3826C21.9739 15.1088 21.7481 14.8869 21.4696 14.8869Z" stroke="#111111"/>
<path d="M7.99528 14.937V16.7227M10.1652 14.8874V18.558" stroke="#111111"/>
<path d="M11.8817 14.986L11.8817 16.7717M13.9507 14.9364L13.9507 18.607" stroke="#111111"/>
<path d="M16.1195 14.9869V16.7726M18.1885 14.9372V18.6079M20.2575 14.9869V16.7726" stroke="#111111"/>
</svg>
